<?xml version="1.0" encoding="UTF-8"?>
<svg width="120px" height="50px" viewBox="0 0 120 50" version="1.1" xmlns="http://www.w3.org/2000/svg" xmlns:xlink="http://www.w3.org/1999/xlink">
    <!-- Generator: Sketch 59 (86127) - https://sketch.com -->
    <title>HecLogo</title>
    <desc>Created with Sketch.</desc>
    <g id="Page-1" stroke="none" stroke-width="1" fill="none" fill-rule="evenodd">
        <g id="Portfolio" transform="translate(-9.000000, -20.000000)">
            <g id="HecLogo" transform="translate(9.000000, 21.000000)">
                <path d="M62.0341797,24 L62.0341797,16.1408203 L65.0921875,16.1408203 L65.0921875,24 L67.6720703,24 L67.6720703,6.98671875 L65.0921875,6.98671875 L65.0921875,14.1087891 L62.0341797,14.1087891 L62.0341797,6.98671875 L59.4542969,6.98671875 L59.4542969,24 L62.0341797,24 Z M74.7468874,6.73769531 L78.1834108,5.08417969 L76.8984499,3.42070313 L73.7009889,5.57226562 L74.7468874,6.73769531 Z M77.834778,24 L77.834778,21.9679687 L74.009778,21.9679687 L74.009778,16.1408203 L76.8884889,16.1408203 L76.8884889,14.1087891 L74.009778,14.1087891 L74.009778,9.01875 L77.7351686,9.01875 L77.7351686,6.98671875 L71.4298952,6.98671875 L71.4298952,24 L77.834778,24 Z M84.1924075,24.1494141 C85.3611575,24.1427734 86.2576419,23.8140625 86.8818606,23.1632813 C87.5060794,22.5125 87.8181888,21.503125 87.8181888,20.1351563 L87.8181888,20.1351563 L87.8181888,18.5613281 L85.4574466,18.5613281 L85.4574466,20.2248047 C85.4574466,20.5634766 85.4225833,20.8573242 85.3528567,21.1063477 C85.2831302,21.3553711 85.1901614,21.5612305 85.0739505,21.7239258 C84.9577395,21.8866211 84.8232669,22.0061523 84.6705325,22.0825195 C84.5177981,22.1588867 84.3584231,22.1970703 84.1924075,22.1970703 C83.9334231,22.1970703 83.7126224,22.1522461 83.5300052,22.0625977 C83.347388,21.9729492 83.1996341,21.821875 83.0867435,21.609375 C82.9738528,21.396875 82.8925052,21.1146484 82.8427005,20.7626953 C82.7928958,20.4107422 82.7679935,19.9691406 82.7679935,19.4378906 L82.7679935,19.4378906 L82.7679935,11.6683594 C82.7679935,11.1238281 82.7995364,10.6689453 82.8626224,10.3037109 C82.9257083,9.93847656 83.0170169,9.64462891 83.1365481,9.42216797 C83.2560794,9.19970703 83.4054935,9.04199219 83.5847903,8.94902344 C83.7640872,8.85605469 83.9732669,8.80957031 84.2123294,8.80957031 C84.6107669,8.80957031 84.9129153,9.04199219 85.1187747,9.50683594 C85.3246341,9.97167969 85.4275638,10.6722656 85.4275638,11.6085938 L85.4275638,11.6085938 L85.4275638,12.4751953 L87.5193606,12.4751953 C87.5924075,12.1033203 87.6471927,11.7629883 87.6837161,11.4541992 C87.7202395,11.1454102 87.7385013,10.8083984 87.7385013,10.4431641 C87.7385013,9.95175781 87.6803958,9.48691406 87.5641849,9.04863281 C87.4479739,8.61035156 87.2520755,8.22685547 86.9764895,7.89814453 C86.7009036,7.56943359 86.3356692,7.31044922 85.8807864,7.12119141 C85.4259036,6.93193359 84.8597903,6.83730469 84.1824466,6.83730469 C83.9234622,6.83730469 83.6428958,6.85722656 83.3407474,6.89707031 C83.0385989,6.93691406 82.7347903,7.02158203 82.4293216,7.15107422 C82.1238528,7.28056641 81.828345,7.46816406 81.5427981,7.71386719 C81.2572513,7.95957031 81.0049075,8.28994141 80.7857669,8.70498047 C80.5666263,9.12001953 80.3906497,9.63134766 80.2578372,10.2389648 C80.1250247,10.846582 80.0586185,11.5787109 80.0586185,12.4353516 L80.0586185,12.4353516 L80.0586185,18.4617187 C80.0586185,19.3117188 80.1233645,20.0438477 80.2528567,20.6581055 C80.3823489,21.2723633 80.5550052,21.7886719 80.7708255,22.2070312 C80.9866458,22.6253906 81.2356692,22.9624023 81.5178958,23.2180664 C81.8001224,23.4737305 82.0956302,23.6712891 82.4044192,23.8107422 C82.7132083,23.9501953 83.0219974,24.0415039 83.3307864,24.084668 C83.6395755,24.127832 83.9267825,24.1494141 84.1924075,24.1494141 Z M94.8332402,24 L94.8332402,9.01875 L97.5625371,9.01875 L97.5625371,6.98671875 L89.5140996,6.98671875 L89.5140996,9.01875 L92.2533574,9.01875 L92.2533574,24 L94.8332402,24 Z M103.900245,24.1494141 C104.145948,24.1494141 104.421534,24.1261719 104.727003,24.0796875 C105.032471,24.0332031 105.3396,23.9385742 105.648389,23.7958008 C105.957178,23.6530273 106.259327,23.4538086 106.554835,23.1981445 C106.850342,22.9424805 107.110987,22.6038086 107.336768,22.1821289 C107.562549,21.7604492 107.745167,21.2458008 107.88462,20.6381836 C108.024073,20.0305664 108.093799,19.3050781 108.093799,18.4617187 L108.093799,18.4617187 L108.093799,12.4353516 C108.093799,11.5654297 108.025733,10.8233398 107.8896,10.209082 C107.753467,9.59482422 107.57251,9.08017578 107.346729,8.66513672 C107.120948,8.25009766 106.861963,7.92138672 106.569776,7.67900391 C106.277588,7.43662109 105.9771,7.25400391 105.668311,7.13115234 C105.359522,7.00830078 105.050733,6.92861328 104.741944,6.89208984 C104.433155,6.85556641 104.152588,6.83730469 103.900245,6.83730469 C103.63462,6.83730469 103.345753,6.85722656 103.033643,6.89707031 C102.721534,6.93691406 102.407764,7.02158203 102.092335,7.15107422 C101.776905,7.28056641 101.474756,7.46816406 101.185889,7.71386719 C100.897022,7.95957031 100.639698,8.28994141 100.413917,8.70498047 C100.188135,9.12001953 100.007178,9.63134766 99.8710455,10.2389648 C99.7349127,10.846582 99.6668463,11.5787109 99.6668463,12.4353516 L99.6668463,12.4353516 L99.6668463,18.4617187 C99.6668463,19.3117188 99.7332525,20.0438477 99.866065,20.6581055 C99.9988775,21.2723633 100.176514,21.7886719 100.398975,22.2070312 C100.621436,22.6253906 100.8771,22.9624023 101.165967,23.2180664 C101.454835,23.4737305 101.755323,23.6712891 102.067432,23.8107422 C102.379542,23.9501953 102.694971,24.0415039 103.013721,24.084668 C103.332471,24.127832 103.627979,24.1494141 103.900245,24.1494141 Z M103.900245,22.2070312 C103.64126,22.2070312 103.415479,22.1638672 103.222901,22.0775391 C103.030323,21.9912109 102.870948,21.8417969 102.744776,21.6292969 C102.618604,21.4167969 102.523975,21.1362305 102.460889,20.7875977 C102.397803,20.4389648 102.36626,19.9990234 102.36626,19.4677734 L102.36626,19.4677734 L102.36626,11.728125 C102.36626,11.1835938 102.397803,10.7287109 102.460889,10.3634766 C102.523975,9.99824219 102.618604,9.70439453 102.744776,9.48193359 C102.870948,9.25947266 103.030323,9.10175781 103.222901,9.00878906 C103.415479,8.91582031 103.64126,8.86933594 103.900245,8.86933594 C104.152588,8.86933594 104.373389,8.91582031 104.562647,9.00878906 C104.751905,9.10175781 104.90796,9.25947266 105.030811,9.48193359 C105.153663,9.70439453 105.246631,9.99824219 105.309717,10.3634766 C105.372803,10.7287109 105.404346,11.1835938 105.404346,11.728125 L105.404346,11.728125 L105.404346,19.4677734 C105.404346,19.9990234 105.372803,20.4389648 105.309717,20.7875977 C105.246631,21.1362305 105.153663,21.4167969 105.030811,21.6292969 C104.90796,21.8417969 104.751905,21.9912109 104.562647,22.0775391 C104.373389,22.1638672 104.152588,22.2070312 103.900245,22.2070312 Z M113.893616,24 L113.893616,17.6349609 L114.859827,17.6349609 L117.12096,24 L119.850257,24 L117.12096,17.1966797 C117.844788,16.8380859 118.39264,16.2520508 118.764515,15.4385742 C119.13639,14.6250977 119.322327,13.5708984 119.322327,12.2759766 L119.322327,12.2759766 L119.322327,11.8476562 C119.322327,11.0773438 119.23932,10.421582 119.073304,9.88037109 C118.907288,9.33916016 118.686488,8.88925781 118.410902,8.53066406 C118.135316,8.17207031 117.819886,7.88984375 117.464613,7.68398438 C117.109339,7.478125 116.740784,7.32373047 116.358948,7.22080078 C115.977113,7.11787109 115.595277,7.053125 115.213441,7.0265625 C114.831605,7 114.481312,6.98671875 114.162562,6.98671875 L114.162562,6.98671875 L111.363538,6.98671875 L111.363538,24 L113.893616,24 Z M114.282093,15.7722656 L113.893616,15.7722656 L113.893616,8.86933594 L114.282093,8.86933594 C114.753577,8.86933594 115.145374,8.91914063 115.457484,9.01875 C115.769593,9.11835938 116.020277,9.27109375 116.209534,9.47695313 C116.398792,9.6828125 116.533265,9.94511719 116.612952,10.2638672 C116.69264,10.5826172 116.732484,10.9611328 116.732484,11.3994141 L116.732484,11.3994141 L116.732484,12.7441406 C116.732484,13.3152344 116.68932,13.7950195 116.602991,14.1834961 C116.516663,14.5719727 116.37721,14.884082 116.184632,15.1198242 C115.992054,15.3555664 115.73971,15.5232422 115.427601,15.6228516 C115.115491,15.7224609 114.733656,15.7722656 114.282093,15.7722656 L114.282093,15.7722656 Z" id="HÉCTOR" fill="#000000" fill-rule="nonzero"></path>
                <path d="M61.7890625,44 L61.7890625,38.4824219 C61.7890625,37.6360677 61.7809245,36.8222656 61.7646484,36.0410156 C61.7483724,35.2597656 61.7272135,34.5419922 61.7011719,33.8876953 C61.6751302,33.2333984 61.6458333,32.655599 61.6132812,32.1542969 C61.5807292,31.6529948 61.5514323,31.2558594 61.5253906,30.9628906 L61.5253906,30.9628906 L61.7109375,30.9628906 L64.25,41.8515625 L65.8515625,41.8515625 L68.3710938,30.9628906 L68.5566406,30.9628906 C68.530599,31.2558594 68.5013021,31.6529948 68.46875,32.1542969 C68.4361979,32.655599 68.406901,33.2333984 68.3808594,33.8876953 C68.3548177,34.5419922 68.3336589,35.2597656 68.3173828,36.0410156 C68.3011068,36.8222656 68.2929688,37.6360677 68.2929688,38.4824219 L68.2929688,38.4824219 L68.2929688,44 L70.65625,44 L70.65625,27.3203125 L67.4238281,27.3203125 L65.7734375,33.7753906 C65.6041667,34.4915365 65.4707031,35.1735026 65.3730469,35.8212891 C65.2753906,36.4690755 65.1809896,37.0794271 65.0898438,37.6523438 L65.0898438,37.6523438 L65.0117188,37.6523438 C64.9205729,37.0794271 64.8261719,36.4690755 64.7285156,35.8212891 C64.6308594,35.1735026 64.4973958,34.4915365 64.328125,33.7753906 L64.328125,33.7753906 L62.7265625,27.3203125 L59.4257812,27.3203125 L59.4257812,44 L61.7890625,44 Z M75.6142759,44 L76.053729,41.0117188 L79.100604,41.0117188 L79.5595884,44 L82.1181821,44 L79.0322446,27.3203125 L76.1220884,27.3203125 L73.0459165,44 L75.6142759,44 Z M78.8076352,39.1074219 L76.3466977,39.1074219 L77.5283384,30.796875 L77.6357602,30.796875 L78.8076352,39.1074219 Z M88.1015986,44.1464844 C89.247432,44.139974 90.1263382,43.8177083 90.7383174,43.1796875 C91.3502965,42.5416667 91.6562861,41.5520833 91.6562861,40.2109375 L91.6562861,40.2109375 L91.6562861,38.6679688 L89.341833,38.6679688 L89.341833,40.2988281 C89.341833,40.6308594 89.3076533,40.9189453 89.2392939,41.1630859 C89.1709346,41.4072266 89.0797887,41.6090495 88.9658564,41.7685547 C88.8519241,41.9280599 88.7200882,42.0452474 88.5703486,42.1201172 C88.420609,42.194987 88.264359,42.2324219 88.1015986,42.2324219 C87.8476924,42.2324219 87.631221,42.1884766 87.4521846,42.1005859 C87.2731481,42.0126953 87.1282913,41.8645833 87.0176142,41.65625 C86.9069372,41.4479167 86.8271846,41.171224 86.7783564,40.8261719 C86.7295283,40.4811198 86.7051142,40.0481771 86.7051142,39.5273438 L86.7051142,39.5273438 L86.7051142,31.9101562 C86.7051142,31.3763021 86.7360387,30.9303385 86.7978877,30.5722656 C86.8597366,30.2141927 86.9492549,29.9261068 87.0664424,29.7080078 C87.1836299,29.4899089 87.3301142,29.3352865 87.5058955,29.2441406 C87.6816767,29.1529948 87.8867549,29.1074219 88.1211299,29.1074219 C88.5117549,29.1074219 88.8079788,29.3352865 89.0098017,29.7910156 C89.2116247,30.2467448 89.3125361,30.9335938 89.3125361,31.8515625 L89.3125361,31.8515625 L89.3125361,32.7011719 L91.3633174,32.7011719 C91.434932,32.3365885 91.4886429,32.0029297 91.5244502,31.7001953 C91.5602575,31.3974609 91.5781611,31.0670573 91.5781611,30.7089844 C91.5781611,30.2272135 91.521195,29.7714844 91.4072627,29.3417969 C91.2933304,28.9121094 91.1012731,28.5361328 90.8310908,28.2138672 C90.5609085,27.8916016 90.2028356,27.6376953 89.7568721,27.4521484 C89.3109085,27.2666016 88.7558955,27.1738281 88.091833,27.1738281 C87.8379267,27.1738281 87.5628616,27.1933594 87.2666377,27.2324219 C86.9704137,27.2714844 86.6725622,27.3544922 86.373083,27.4814453 C86.0736038,27.6083984 85.7838903,27.7923177 85.5039424,28.0332031 C85.2239945,28.2740885 84.9765986,28.5979818 84.7617549,29.0048828 C84.5469111,29.4117839 84.3743851,29.9130859 84.2441767,30.5087891 C84.1139684,31.1044922 84.0488642,31.8222656 84.0488642,32.6621094 L84.0488642,32.6621094 L84.0488642,38.5703125 C84.0488642,39.4036458 84.1123408,40.1214193 84.2392939,40.7236328 C84.3662471,41.3258464 84.5355179,41.8320312 84.7471064,42.2421875 C84.958695,42.6523438 85.2028356,42.9827474 85.4795283,43.2333984 C85.756221,43.4840495 86.0459346,43.6777344 86.3486689,43.8144531 C86.6514033,43.9511719 86.9541377,44.0406901 87.2568721,44.0830078 C87.5596064,44.1253255 87.841182,44.1464844 88.1015986,44.1464844 Z M95.676812,27.0761719 L99.0459526,25.4550781 L97.786187,23.8242188 L94.6514214,25.9335938 L95.676812,27.0761719 Z M96.9561089,44 L96.9561089,27.3203125 L94.426812,27.3203125 L94.426812,44 L96.9561089,44 Z M102.832103,44 L102.832103,39.0976562 C102.832103,38.2513021 102.822338,37.5205078 102.802807,36.9052734 C102.783275,36.2900391 102.760489,35.7513021 102.734447,35.2890625 C102.708406,34.8268229 102.679109,34.4248047 102.646557,34.0830078 C102.614005,33.7412109 102.587963,33.4238281 102.568432,33.1308594 L102.568432,33.1308594 L102.646557,33.1308594 L106.669994,44 L108.740307,44 L108.740307,27.3203125 L106.474682,27.3203125 L106.474682,33.4042969 C106.474682,34.0488281 106.484447,34.6282552 106.503978,35.1425781 C106.52351,35.656901 106.546296,36.117513 106.572338,36.5244141 C106.59838,36.9313151 106.627676,37.2942708 106.660228,37.6132812 C106.692781,37.9322917 106.718822,38.2220052 106.738353,38.4824219 L106.738353,38.4824219 L106.67976,38.4824219 L102.636791,27.3203125 L100.58601,27.3203125 L100.58601,44 L102.832103,44 Z" id="MACÍN" fill="#000000" fill-rule="nonzero"></path>
                <g id="logoBlack" fill-rule="evenodd" stroke="#000000" stroke-width="1">
                    <g id="Logo-Copy">
                        <path d="M14.1696,24.1561889 C14.1696,24.1561889 9.4464,24.1561889 0,24.1561889 L26.6112,48.4345889 L53.2224,24.1561889 L40.0032,24.1561889" id="Path" stroke-width="0.5"></path>
                        <path d="M20.304,29.7721889 C16.7328,27.2377889 14.688,25.3657889 14.1696,24.1561889 C13.7255404,23.1200499 13.4833188,21.1692909 13.6512,19.5769889 C13.7772983,18.3809847 14.2187196,17.4297095 14.5152,16.9849889 C14.976,16.2937889 15.7536,15.2281889 16.848,13.7881889 L20.8224,8.34498888 C22.2624,6.67458888 23.5008,5.83938888 24.5376,5.83938888" id="Path-2" stroke-width="0.5"></path>
                        <path d="M20.6496,27.5257889 C18.5184,25.4521889 17.0496,23.8681889 16.2432,22.7737889 C15.0336,21.1321889 14.8608,20.0089889 14.8608,18.1945889 C14.8608,16.3801889 17.5392,14.1337889 17.5392,14.1337889 C17.5392,14.1337889 17.9649184,13.5911067 19.6128,11.6281889 C21.2606816,9.66527108 21.0680775,9.37048443 22.9824,7.91298888 C24.8967225,6.45549334 25.6608,5.83938888 27.5616,5.83938888 C29.4624,5.83938888 30.4992,6.87618888 31.7088,8.25858888 C32.5152,9.18018888 33.5232,10.7353889 34.7328,12.9241889 C36.837194,16.365347 37.989194,18.784547 38.1888,20.1817889 C38.488209,22.2776517 37.152,23.6377889 36.4608,24.1561889 C36,24.5017889 34.704,25.3081889 32.5728,26.5753889" id="Path-3" stroke-width="0.5"></path>
                        <path d="M31.0176,5.23458888 C32.7456,7.07778888 33.7248,8.17218888 33.9552,8.51778888 C34.3008,9.03618888 35.856,12.4057889 38.1024,14.5657889 C40.3488,16.7257889 41.2128,19.4905889 41.2128,20.5273889 C41.2128,21.5641889 40.8672,23.3785889 38.1888,25.7977889 C36.4032,27.4105889 34.6464,28.7353889 32.9184,29.7721889" id="Path-4" stroke-width="0.5"></path>
                        <path d="M34.3008,8.25858888 C36.8928,11.6569889 38.4192,13.9897889 38.88,15.2569889" id="Path-5" stroke-width="0.5"></path>
                        <path d="M15.984,14.7385889 C16.9157296,11.5034208 17.8373296,9.19942081 18.7488,7.82658888 C20.1160056,5.76734099 21.168,5.58018888 22.896,4.02498888 C24.624,2.46978888 25.4995984,1.19676645 26.1792,0.655388884 C26.8588016,0.114011318 27.2127683,-0.109164315 28.08,0.050588884 C28.9472317,0.210342083 28.7500053,0.649969269 29.4624,1.17378888 C30.1747947,1.6976085 30.9312,2.12418888 31.4496,2.81538888 C31.968,3.50658888 33.5232,4.45698888 34.3008,5.66658888 C34.8192,6.47298888 35.3664,8.05698888 35.9424,10.4185889" id="Path-6" stroke-width="0.5"></path>
                        <polyline id="Path-7" stroke-width="0.5" points="18.8352 12.6649889 18.7488 17.1577889 21.0816 19.4041889"></polyline>
                        <polyline id="Path-7-Copy" stroke-width="0.5" transform="translate(33.566400, 16.120989) scale(-1, 1) translate(-33.566400, -16.120989) " points="32.4864 12.7513889 32.4 17.2441889 34.7328 19.4905889"></polyline>
                        <polyline id="Path-8" stroke-width="0.5" points="19.0944 17.5033889 19.0944 22.5145889 20.736 25.8841889"></polyline>
                        <polyline id="Path-8-Copy" stroke-width="0.5" transform="translate(33.566400, 21.952989) scale(-1, 1) translate(-33.566400, -21.952989) " points="32.7456 17.7625889 32.7456 22.7737889 34.3872 26.1433889"></polyline>
                        <polyline id="Path-9" stroke-width="0.5" points="25.4016 12.9241889 21.4272 11.3689889 20.1312 12.8377889 20.1312 12.0601889 21.3408 10.5913889 25.3152 12.2329889 25.8336 18.3673889"></polyline>
                        <line x1="22.0104" y1="14.1121889" x2="21.276" y2="13.3777889" id="Path-10" stroke-width="0.5"></line>
                        <path d="M21.0816,13.6153889 C21.7728,13.2121889 22.4352,13.0681889 23.0688,13.1833889 C23.7024,13.2985889 24.1632,13.5289889 24.4512,13.8745889" id="Path-11" stroke-width="0.5"></path>
                        <circle id="Oval" stroke-width="0.5" cx="22.9824" cy="13.7017889" r="1"></circle>
                        <line x1="20.9952" y1="15.1705889" x2="22.9824" y2="16.5529889" id="Path-12" stroke-width="0.5"></line>
                        <line x1="22.5504" y1="16.8985889" x2="24.192" y2="15.7753889" id="Path-13" stroke-width="0.5"></line>
                        <path d="M20.304,29.7721889 C16.7328,27.2377889 14.688,25.3657889 14.1696,24.1561889 C13.7255404,23.1200499 13.4833188,21.1692909 13.6512,19.5769889 C13.7772983,18.3809847 14.2187196,17.4297095 14.5152,16.9849889 C14.976,16.2937889 15.7536,15.2281889 16.848,13.7881889 L20.8224,8.34498888 C22.2624,6.67458888 23.5008,5.83938888 24.5376,5.83938888" id="Path-2" stroke-width="0.5"></path>
                        <path d="M20.6496,27.5257889 C18.5184,25.4521889 17.0496,23.8681889 16.2432,22.7737889 C15.0336,21.1321889 14.8608,20.0089889 14.8608,18.1945889 C14.8608,16.3801889 17.5392,14.1337889 17.5392,14.1337889 C17.5392,14.1337889 17.9649184,13.5911067 19.6128,11.6281889 C21.2606816,9.66527108 21.0680775,9.37048443 22.9824,7.91298888 C24.8967225,6.45549334 25.6608,5.83938888 27.5616,5.83938888 C29.4624,5.83938888 30.4992,6.87618888 31.7088,8.25858888 C32.5152,9.18018888 33.5232,10.7353889 34.7328,12.9241889 C36.837194,16.365347 37.989194,18.784547 38.1888,20.1817889 C38.488209,22.2776517 37.152,23.6377889 36.4608,24.1561889 C36,24.5017889 34.704,25.3081889 32.5728,26.5753889" id="Path-3" stroke-width="0.5"></path>
                        <path d="M15.984,14.7385889 C16.9157296,11.5034208 17.8373296,9.19942081 18.7488,7.82658888 C20.1160056,5.76734099 21.168,5.58018888 22.896,4.02498888 C24.624,2.46978888 25.4995984,1.19676645 26.1792,0.655388884 C26.8588016,0.114011318 27.2127683,-0.109164315 28.08,0.050588884 C28.9472317,0.210342083 28.7500053,0.649969269 29.4624,1.17378888 C30.1747947,1.6976085 30.9312,2.12418888 31.4496,2.81538888 C31.968,3.50658888 33.5232,4.45698888 34.3008,5.66658888 C34.8192,6.47298888 35.3664,8.05698888 35.9424,10.4185889" id="Path-6" stroke-width="0.5"></path>
                        <polyline id="Path-7" stroke-width="0.5" points="18.8352 12.6649889 18.7488 17.1577889 21.0816 19.4041889"></polyline>
                        <polyline id="Path-9" stroke-width="0.5" points="25.4016 12.9241889 21.4272 11.3689889 20.1312 12.8377889 20.1312 12.0601889 21.3408 10.5913889 25.3152 12.2329889 25.8336 18.3673889"></polyline>
                        <line x1="22.0104" y1="14.1121889" x2="21.276" y2="13.3777889" id="Path-10" stroke-width="0.5"></line>
                        <path d="M21.0816,13.6153889 C21.7728,13.2121889 22.4352,13.0681889 23.0688,13.1833889 C23.7024,13.2985889 24.1632,13.5289889 24.4512,13.8745889" id="Path-11" stroke-width="0.5"></path>
                        <circle id="Oval" stroke-width="0.5" cx="22.9824" cy="13.7017889" r="1"></circle>
                        <line x1="20.9952" y1="15.1705889" x2="22.9824" y2="16.5529889" id="Path-12" stroke-width="0.5"></line>
                        <line x1="22.5504" y1="16.8985889" x2="24.192" y2="15.7753889" id="Path-13" stroke-width="0.5"></line>
                        <g id="Group" transform="translate(20.995200, 13.096989)" stroke-width="0.5">
                            <line x1="1.0152" y1="1.0152" x2="0.2808" y2="0.2808" id="Path-10"></line>
                            <path d="M0.0864,0.5184 C0.7776,0.1152 1.44,-0.0288 2.0736,0.0864 C2.7072,0.2016 3.168,0.432 3.456,0.7776" id="Path-11"></path>
                            <circle id="Oval" cx="1.9872" cy="0.6048" r="1"></circle>
                            <line x1="0" y1="2.0736" x2="1.9872" y2="3.456" id="Path-12"></line>
                            <line x1="1.5552" y1="3.8016" x2="3.1968" y2="2.6784" id="Path-13"></line>
                        </g>
                        <g id="Group-Copy" transform="translate(30.764000, 15.269789) scale(-1, 1) translate(-30.764000, -15.269789) translate(28.264000, 13.269789)" stroke-width="0.5">
                            <line x1="1.836" y1="1.188" x2="1.2096" y2="0.6912" id="Path-10"></line>
                            <path d="M1.0368,0.864 C1.29728791,0.614269356 1.47008791,0.470269356 1.5552,0.432 C2.10792385,0.183476146 2.59568814,0.0792160247 3.1104,0.1728 C3.744,0.288 4.176,0.4032 4.4064,0.5184" id="Path-11"></path>
                            <circle id="Oval" cx="2.8512" cy="0.6048" r="1"></circle>
                            <line x1="0.1728" y1="2.0736" x2="1.9008" y2="3.2832" id="Path-12"></line>
                            <line x1="1.2096" y1="3.456" x2="3.6288" y2="2.9376" id="Path-13"></line>
                        </g>
                        <polyline id="Path-14" stroke-width="0.5" points="25.8336 17.3305889 23.6736 19.0585889 26.784 21.3049889 29.6352 19.0585889 27.8208 17.2441889"></polyline>
                        <path d="M27.8208,18.3673889 L28.08,12.4921889 C30.6144,11.3977889 31.8816,10.8505889 31.8816,10.8505889 C31.8816,10.8505889 32.3136,11.3401889 33.1776,12.3193889 L33.1776,13.2697889 L31.968,11.6281889 L27.9936,13.2697889" id="Path-15" stroke-width="0.5"></path>
                        <polyline id="Path-16" stroke-width="0.5" points="20.736 31.0681889 20.736 34.8697889 26.6112 48.1753889 32.7456 34.8697889 32.7456 31.0681889"></polyline>
                        <line x1="24.5376" y1="24.0697889" x2="28.5984" y2="23.9833889" id="Path-17" stroke-width="0.5"></line>
                        <path d="M19.3536,31.0681889 C19.4913161,31.0681889 20.0629334,30.4479676 20.3904,29.9449889 C20.679269,29.5012949 20.736,29.1673889 20.736,29.1673889 C20.736,29.1673889 20.736,27.3817889 20.736,23.8105889 C21.6377108,22.1492145 22.4441108,21.1124145 23.1552,20.7001889 C23.5913503,20.4473481 24.192,20.2681889 25.1424,20.2681889 C25.1999998,20.2681889 25.7471998,20.6137889 26.784,21.3049889 C27.3890598,20.7460736 27.8498598,20.4292736 28.1664,20.3545889 C28.5392683,20.2666141 29.2284504,20.424877 29.5488,20.5273889 C30.6412239,20.8769645 32.2272,22.9465889 32.4,23.8105889 C32.5728,24.6745889 32.4,29.1673889 32.4,29.1673889 C32.4,29.1673889 32.7911954,29.9703161 33.1776,30.4633889 C33.5693479,30.96328 33.9557933,31.1539956 33.8688,31.2409889 C33.696,31.4137889 32.0544,31.4137889 31.1904,29.3401889 C30.3264,27.2665889 30.3181242,27.3780855 29.6352,25.8841889 C28.9522758,24.3902922 28.512,23.6377889 28.1664,23.2057889 C27.8208,22.7737889 27.3024,22.4281889 26.6112,22.4281889 C25.92,22.4281889 25.5744,22.6009889 25.056,23.2057889 C24.5376,23.8105889 22.8945808,27.8964357 22.2912,28.9945889 C21.6878192,30.092742 21.0508496,30.5913962 20.736,30.8953889 C20.4211504,31.1993816 19.9570765,31.2409889 19.6992,31.2409889 C19.4413235,31.2409889 19.0944,31.0681889 19.3536,31.0681889 Z" id="Path-18" stroke-width="0.5"></path>
                        <line x1="22.2048" y1="21.7369889" x2="22.2048" y2="38.1529889" id="Path-19" stroke-width="0.5"></line>
                        <line x1="23.5872" y1="20.5273889" x2="23.5872" y2="41.2633889" id="Path-19-Copy" stroke-width="0.5"></line>
                        <line x1="26.5248" y1="24.1561889" x2="26.5248" y2="47.8297889" id="Path-19-Copy-3" stroke-width="0.5"></line>
                        <line x1="27.9072" y1="23.9833889" x2="27.9072" y2="44.8921889" id="Path-19-Copy-4" stroke-width="0.5"></line>
                        <line x1="29.2896" y1="20.5273889" x2="29.2896" y2="41.9545889" id="Path-19-Copy-5" stroke-width="0.5"></line>
                        <line x1="31.0176" y1="21.7369889" x2="31.0176" y2="38.4985889" id="Path-19-Copy-6" stroke-width="0.5"></line>
                        <line x1="25.1424" y1="24.1561889" x2="25.1424" y2="44.7193889" id="Path-19-Copy-2" stroke-width="0.5"></line>
                        <line x1="25.1424" y1="20.3545889" x2="25.1424" y2="22.9465889" id="Path-19-Copy-7" stroke-width="0.5"></line>
                        <line x1="26.6976" y1="21.3913889" x2="26.6976" y2="22.4281889" id="Path-19-Copy-8" stroke-width="0.5"></line>
                        <line x1="27.9072" y1="20.3545889" x2="27.9072" y2="22.9465889" id="Path-19-Copy-8" stroke-width="0.5"></line>
                        <line x1="20.736" y1="11.3689889" x2="20.736" y2="12.2329889" id="Path-20" stroke-width="0.5"></line>
                        <line x1="21.6864" y1="10.6777889" x2="21.6864" y2="11.5417889" id="Path-20-Copy" stroke-width="0.5"></line>
                        <line x1="22.3776" y1="11.0233889" x2="22.3776" y2="11.8873889" id="Path-20-Copy-2" stroke-width="0.5"></line>
                        <line x1="23.2416" y1="11.3689889" x2="23.2416" y2="12.2329889" id="Path-20-Copy-3" stroke-width="0.5"></line>
                        <line x1="24.1056" y1="11.7145889" x2="24.1056" y2="12.5785889" id="Path-20-Copy-4" stroke-width="0.5"></line>
                        <line x1="29.2896" y1="11.8873889" x2="29.2896" y2="12.7513889" id="Path-20-Copy-5" stroke-width="0.5"></line>
                        <line x1="29.9808" y1="11.5417889" x2="29.9808" y2="12.4057889" id="Path-20-Copy-6" stroke-width="0.5"></line>
                        <line x1="30.8448" y1="11.1961889" x2="30.8448" y2="12.0601889" id="Path-20-Copy-7" stroke-width="0.5"></line>
                        <line x1="31.7088" y1="10.8505889" x2="31.7088" y2="11.7145889" id="Path-20-Copy-8" stroke-width="0.5"></line>
                        <line x1="32.5728" y1="11.7145889" x2="32.5728" y2="12.5785889" id="Path-20-Copy-9" stroke-width="0.5"></line>
                    </g>
                </g>
            </g>
        </g>
    </g>
</svg>