<svg width="28" height="28" viewBox="0 0 28 28" 
    xmlns="http://www.w3.org/2000/svg">
    <g fill="none" fill-rule="evenodd">
        <path fill="#2C7CFF" d="M-789-57H577v197H-789z"/>
        <path d="M25.749 0H2A2.001 2.001 0 000 2.001V25.75c0 1.105.896 2.001 2.001 2.001H25.75a2.001 2.001 0 002.001-2.001V2A2.001 2.001 0 0025.749 0zM9.843 20.975h-3.38V10.81h3.38v10.166zM8.153 9.421h-.021c-1.134 0-1.868-.781-1.868-1.757 0-.997.756-1.756 1.912-1.756s1.867.759 1.89 1.756c0 .976-.734 1.757-1.912 1.757zm13.875 11.554h-3.379v-5.439c0-1.367-.49-2.299-1.712-2.299-.933 0-1.49.63-1.734 1.236-.089.217-.11.52-.11.825v5.677h-3.38s.044-9.212 0-10.166h3.38v1.44c.448-.694 1.252-1.679 3.044-1.679 2.224 0 3.89 1.453 3.89 4.576v5.83z" fill="#FFF" fill-rule="nonzero"/>
    </g>
</svg>