<svg width="37" height="37" viewBox="0 0 37 37" xmlns="http://www.w3.org/2000/svg">
  <path d="M34.332 0H2.668A2.668 2.668 0 000 2.668v31.664A2.668 2.668 0 002.668 37h31.664A2.668 2.668 0 0037 34.332V2.668A2.668 2.668 0 0034.332 0zm-7.373 14.973c0 5.611-4.271 12.081-12.082 12.082a12.02 12.02 0 01-6.508-1.908c.332.04.67.059 1.013.059a8.52 8.52 0 005.274-1.818 4.251 4.251 0 01-3.967-2.949 4.226 4.226 0 001.917-.073A4.247 4.247 0 019.2 16.204v-.054c.573.318 1.227.51 1.924.53a4.242 4.242 0 01-1.89-3.534c0-.778.21-1.507.575-2.134a12.056 12.056 0 008.753 4.436 4.247 4.247 0 017.236-3.872 8.517 8.517 0 002.696-1.03 4.263 4.263 0 01-1.868 2.348 8.469 8.469 0 002.439-.669 8.63 8.63 0 01-2.118 2.2c.008.181.012.364.012.548z" fill="#000" fill-rule="nonzero"/>
</svg>
