<svg width="33" height="34" viewBox="0 0 33 34" version="1.1" xmlns="http://www.w3.org/2000/svg" xmlns:xlink="http://www.w3.org/1999/xlink">
    <g id="Page-1" stroke="none" stroke-width="1" fill="none" fill-rule="evenodd">
        <g id="Contact" fill-rule="nonzero">
            <g id="500px" >
                <path d="M30.620018,0 L2.37998198,0 C1.06549072,0 0,1.06549072 0,2.37998198 L0,30.620018 C0,31.9345093 1.06549072,33 2.37998198,33 L30.620018,33 C31.9345093,33 33,31.9345093 33,30.620018 L33,2.37998198 C33,1.06549072 31.9345093,0 30.620018,0 Z" id="Shape-Copy-2" fill="#000000"></path>
                <g id="fotografia" transform="translate(8.000000, 6.000000)" fill="#FAFAFA">
                    <g id="500px">
                        <path d="M15.7219374,16.6236032 C15.5768103,16.4828946 15.4536209,16.3998067 15.3451818,16.3695377 C15.2352427,16.3388432 15.1370538,16.3616969 15.0612401,16.4356676 L14.9898641,16.5049582 C14.2424155,17.2318409 13.3721526,17.8025157 12.4030757,18.201119 C11.4002483,18.6135803 10.33467,18.8227285 9.23590373,18.8227285 C8.13713743,18.8227285 7.07149663,18.6136411 6.06873175,18.201119 C5.09977988,17.8025765 4.22951698,17.2319016 3.48206839,16.505019 C2.70336934,15.7477458 2.11661064,14.9014888 1.73804252,13.989649 C1.36897455,13.1005413 1.24841026,12.4318263 1.20878467,12.2121021 C1.20503462,12.1914973 1.20215957,12.1752079 1.19984704,12.1634772 C1.14909629,11.9047315 0.904217656,11.8866187 0.552212435,11.9390121 C0.405835264,11.9607718 -0.0395463419,12.0270233 0.00282928659,12.3386487 L0.00389180235,12.3458208 C0.122133659,13.0683748 0.330050562,13.7743161 0.623088486,14.4481825 C1.09397047,15.5308176 1.76785547,16.5028917 2.62611819,17.3374178 C3.48438092,18.1721263 4.48395825,18.8274695 5.59722476,19.2853344 C6.74974186,19.7595495 7.97394751,20 9.23590373,20 C10.4971724,20 11.7214406,19.7594279 12.8745827,19.2849697 C13.9874742,18.8272871 14.987114,18.1717617 15.8457518,17.3366885 C15.8477518,17.3348042 15.8946275,17.2895222 15.9203154,17.262353 C16.0147543,17.1623071 16.0970055,16.9872572 15.7219374,16.6235424 L15.7219374,16.6236032 Z M9.22427856,2.14284195 C8.01844817,2.14284195 6.73574165,2.3795848 5.79335267,2.77599993 C5.69260118,2.81435288 5.63241278,2.89306456 5.61916259,3.0036256 C5.6067874,3.10786539 5.63572533,3.24553486 5.7077889,3.42453556 C5.76622727,3.56980267 5.92147957,3.95558108 6.22198403,3.84410832 C7.18649833,3.48628928 8.25270165,3.28923656 9.22427856,3.28923656 C10.3251699,3.28923656 11.3928107,3.49881021 12.3976381,3.91206173 C13.196025,4.24058423 13.9494111,4.71498166 14.7684858,5.40521321 C14.8281742,5.45560084 14.8916126,5.48112895 14.9568636,5.48112895 C15.1165534,5.48112895 15.2696807,5.32856809 15.4006827,5.18561065 C15.6194359,4.94698358 15.7696256,4.74865446 15.5541224,4.55020377 C14.7719858,3.82964239 13.9148481,3.2913639 12.8567699,2.85623114 C11.7061279,2.38286699 10.4839222,2.14284195 9.22421606,2.14284195 L9.22427856,2.14284195 Z M7.58036583,12.0578394 C7.5818167,12.1903425 7.70650605,12.3065562 7.78100715,12.3759683 L7.804445,12.3979711 C7.93219689,12.5201414 8.0538862,12.5821382 8.16607536,12.5821382 C8.25901424,12.5821382 8.31626509,12.539409 8.33657789,12.5210531 C8.39282873,12.4701792 9.02940067,11.842917 9.09015157,11.7830475 L9.8000996,12.4712125 C9.86585057,12.5432382 9.93728913,12.5793423 10.0205404,12.5815304 C10.1338545,12.5815304 10.2574189,12.5160083 10.3877333,12.3867266 C10.6940504,12.0825166 10.5407356,11.9184681 10.4666095,11.8392094 L9.74734881,11.1394352 L10.4974849,10.4047725 C10.6619874,10.2316068 10.5167352,10.0476829 10.3718581,9.90673122 C10.1614175,9.70214163 9.95847695,9.64932275 9.82828752,9.76590113 L9.08240145,10.4925406 L8.32814027,9.75878972 C8.28910798,9.72193377 8.23672838,9.70149728 8.1823256,9.7018927 C8.08176161,9.7018927 7.96288485,9.76796769 7.82875786,9.89834341 C7.59681692,10.1239025 7.54706618,10.2798064 7.66775547,10.4042255 L8.42232916,11.1357275 L7.67225554,11.8665001 C7.61050462,11.9263696 7.57962916,11.9907369 7.58036583,12.0578394 L7.58036583,12.0578394 Z M2.79712073,13.1412039 C2.8016208,13.1533601 2.90812238,13.439822 2.96987329,13.5818677 C3.30875332,14.361083 3.79407302,15.0610395 4.41233219,15.6622874 C5.03015385,16.263049 5.75003953,16.7350151 6.55198892,17.0648141 C7.38212623,17.4064045 8.26376431,17.5795094 9.17246529,17.5795094 C10.0809788,17.5795094 10.9626168,17.406283 11.7929417,17.0647533 C12.5945785,16.7350151 13.3144642,16.263049 13.9325359,15.6619835 C14.5506076,15.0610395 15.0358648,14.3609614 15.3750573,13.5813207 C15.7261875,12.773903 15.9042526,11.9164623 15.9042526,11.0328857 C15.9042526,10.1492483 15.7261875,9.2918076 15.3749948,8.48445064 C15.0359273,7.7048707 14.5506076,7.0047926 13.9325359,6.4037271 C13.3146517,5.80278317 12.594766,5.33081699 11.7929417,5.0009573 C10.9627418,4.65942762 10.0810413,4.48626192 9.17246529,4.48626192 C8.25307665,4.48626192 7.33443803,4.66422934 6.51580089,5.0009573 C5.86141618,5.27015733 4.75389975,5.96318481 4.10551514,6.6134831 L4.10176508,6.61725153 L4.10176508,1.22948254 L13.4081531,1.22942176 C13.7468456,1.22577488 13.7468456,0.765904166 13.7468456,0.61474127 C13.7468456,0.463639154 13.7468456,0.00388999815 13.4071531,0 L3.34437885,0 C3.07043728,0 2.90087227,0.221608332 2.90087227,0.426927297 L2.90087227,8.01047868 C2.90087227,8.2551231 3.21425192,8.43181411 3.50544374,8.4923522 C4.07407717,8.61045012 4.20545412,8.43369832 4.34470618,8.24667451 L4.36320646,8.22187577 C4.57577211,7.91468748 5.24021947,7.26444998 5.24684456,7.25794638 C6.28373494,6.24958593 7.67006801,5.69434947 9.15052746,5.69434947 C10.6239243,5.69434947 12.0063823,6.24964671 13.0432102,7.25794638 C14.0835381,8.26977137 14.6565466,9.61036198 14.6565466,11.0328857 C14.6565466,12.4605758 14.0865382,13.8011056 13.0514603,14.8077034 C12.0295702,15.8014764 10.602049,16.3713611 9.13496473,16.3713611 C8.14132499,16.3713611 7.18212327,16.1138919 6.36048608,15.6266088 L6.36392363,11.0155023 C6.36392363,10.4006394 6.6383027,9.73228911 7.09787202,9.22756185 C7.62325481,8.65056572 8.34739055,8.3328015 9.13677726,8.3328015 C9.9013511,8.3328015 10.6152992,8.61500871 11.1473696,9.12757674 C11.6755649,9.63643713 11.9664442,10.3143909 11.9664442,11.0365933 C11.9664442,12.5775188 10.7204882,13.7845123 9.12996466,13.7845123 C8.82327261,13.7845123 8.26588934,13.6527994 8.2429515,13.6473291 C7.92182174,13.5543339 7.78519471,13.9879471 7.74019405,14.1308437 C7.56731648,14.6804883 7.82713283,14.789469 7.88094613,14.8057584 C8.39282873,14.9602035 8.7284587,14.9895 9.16871523,14.9895 C11.4141235,14.9895 13.2409006,13.2121356 13.2409006,11.0274762 C13.2409006,8.8603825 11.4152486,7.09724084 9.17121527,7.09724084 C8.07232397,7.09724084 7.03993366,7.50575142 6.26435966,8.24752544 C5.5257862,8.95398558 5.10209242,9.89591216 5.10209242,10.8315783 L5.10171741,10.8547967 C5.09809236,10.9714966 5.09577982,13.7357658 5.09509231,14.6429255 L5.09090475,14.6383669 C4.66883599,14.1839057 4.2517048,13.4882039 3.9750757,12.7774891 C3.86669909,12.4989287 3.62175796,12.5482223 3.28756551,12.648329 C3.14162584,12.6920915 2.69755675,12.8250808 2.79568321,13.1373139 L2.79712073,13.1412039 Z" id="Shape"></path>
                    </g>
                </g>
            </g>
        </g>
    </g>
</svg>