<svg width="33" height="33" viewBox="0 0 33 33" xmlns="http://www.w3.org/2000/svg">
  <g fill-rule="nonzero" fill="none">
    <path d="M30.62 0H2.38A2.38 2.38 0 000 2.38v28.24A2.38 2.38 0 002.38 33h28.24A2.38 2.38 0 0033 30.62V2.38A2.38 2.38 0 0030.62 0z" fill="#000"/>
    <path d="M6.754 20.953a.738.738 0 01-.731-.744v-7.442c0-.41.327-.744.73-.744.405 0 .732.333.732.744v7.442a.738.738 0 01-.731.744zM15.526 20.953a.738.738 0 01-.73-.744v-6.697h-.132l-1.345 6.846a.732.732 0 01-.862.581.738.738 0 01-.571-.58l-1.345-6.847h-.132v6.697a.738.738 0 01-.731.745.738.738 0 01-.731-.745v-7.442c0-.41.327-.744.731-.744h1.462c.348 0 .647.249.717.596l.745 3.795.746-3.795a.734.734 0 01.716-.596h1.462c.404 0 .732.333.732.744v7.442a.738.738 0 01-.732.744z" fill="#455A64"/>
    <path d="M19.913 20.953H18.45a.738.738 0 01-.731-.744v-7.442c0-.41.327-.744.73-.744h1.463c1.211 0 2.193 1 2.193 2.233v4.465c0 1.233-.982 2.232-2.193 2.232zm-.731-1.488h.73a.738.738 0 00.732-.744v-4.465a.738.738 0 00-.731-.744h-.731v5.953zM24.3 20.953a.738.738 0 01-.732-.744v-7.442c0-.41.327-.744.731-.744.404 0 .731.333.731.744v7.442a.738.738 0 01-.73.744z" fill="#FFF"/>
    <path d="M25.761 20.953c-1.211 0-2.193-1-2.193-2.232v-2.977c0-1.233.982-2.232 2.193-2.232s2.193 1 2.193 2.232v2.977c0 1.233-.982 2.232-2.193 2.232zm0-5.953a.738.738 0 00-.73.744v2.977c0 .411.326.744.73.744a.738.738 0 00.731-.744v-2.977a.738.738 0 00-.73-.744zM6.688 21c-.38 0-.688-.336-.688-.75v-7.5c0-.414.308-.75.688-.75.38 0 .687.336.687.75v7.5c0 .414-.308.75-.688.75zM15.556 21a.753.753 0 01-.756-.75V13.5h-.136l-1.392 6.9a.756.756 0 01-1.482 0L10.4 13.5h-.137v6.75c0 .413-.338.75-.756.75a.753.753 0 01-.756-.75v-7.5c0-.414.339-.75.756-.75h1.513c.36 0 .669.25.74.6l.772 3.826.772-3.826c.071-.35.381-.6.74-.6h1.513c.418 0 .757.336.757.75v7.5c0 .413-.34.75-.757.75zM19.75 21h-1.375c-.38 0-.687-.336-.687-.75v-7.5c0-.414.307-.75.687-.75h1.375c1.14 0 2.063 1.007 2.063 2.25v4.5c0 1.243-.924 2.25-2.063 2.25zm-.688-1.5h.688c.38 0 .688-.336.688-.75v-4.5c0-.414-.308-.75-.688-.75h-.688v6z" fill="#FFF"/>
    <path d="M24.563 21c-.38 0-.688-.336-.688-.75v-7.5c0-.414.308-.75.688-.75.38 0 .687.336.687.75v7.5c0 .414-.308.75-.688.75z" fill="#FFF"/>
    <path d="M25.938 21c-1.14 0-2.063-1.023-2.063-2.285V15.67c0-1.262.923-2.284 2.063-2.284 1.139 0 2.062 1.022 2.062 2.284v3.046C28 19.977 27.077 21 25.937 21zm0-6.092c-.38 0-.688.34-.688.761v3.046c0 .421.308.762.688.762.38 0 .687-.341.687-.762V15.67c0-.42-.308-.761-.688-.761z" fill="#FFF"/>
  </g>
</svg>
