<svg width="37" height="37" viewBox="0 0 37 37" xmlns="http://www.w3.org/2000/svg">
  <path d="M34.332 0H2.668A2.668 2.668 0 000 2.668v31.664A2.668 2.668 0 002.668 37h31.664A2.668 2.668 0 0037 34.332V2.668A2.668 2.668 0 0034.332 0zM13.124 27.967H8.62V14.412h4.505v13.555zM10.871 12.56h-.029c-1.512 0-2.49-1.041-2.49-2.342 0-1.33 1.008-2.342 2.55-2.342 1.54 0 2.49 1.012 2.519 2.342 0 1.3-.978 2.342-2.55 2.342zm18.5 15.406h-4.506v-7.252c0-1.822-.652-3.065-2.282-3.065-1.245 0-1.986.838-2.312 1.647-.12.29-.148.695-.148 1.1v7.57h-4.505s.059-12.284 0-13.555h4.505v1.919c.599-.924 1.67-2.238 4.06-2.238 2.965 0 5.187 1.938 5.187 6.101v7.773z" fill="#000" fill-rule="nonzero"/>
</svg>
