<svg width="34" height="33" viewBox="0 0 34 33" xmlns="http://www.w3.org/2000/svg">
  <g fill-rule="nonzero" fill="none">
    <path d="M31.548 0H2.452C1.098 0 0 1.065 0 2.38v28.24C0 31.935 1.098 33 2.452 33h29.096C32.902 33 34 31.935 34 30.62V2.38C34 1.065 32.902 0 31.548 0z" fill="#000"/>
    <path d="M8.763 12.834c.751 0 1.457 1.051 2.117 3.16l.892 2.908.906 2.914C13.54 23.94 14.616 25 15.91 25c2.082-.009 4.613-1.747 7.597-5.214 2.896-3.313 4.39-5.925 4.483-7.846.005-.158.01-.316.01-.464C27.99 9.21 26.928 8.054 24.8 8h-.248c-2.943.01-4.932 1.54-5.962 4.597.576-.202 1.113-.306 1.619-.306.998 0 1.498.434 1.498 1.309 0 .114-.01.23-.025.365-.067.642-.557 1.63-1.473 2.963-.935 1.298-1.625 1.95-2.079 1.95-.581-.01-1.127-1.012-1.633-3.002-.092-.302-.206-.825-.34-1.575-.139-.75-.314-1.729-.525-2.928-.37-2.109-1.33-3.16-2.855-3.16a3.05 3.05 0 00-.305.015c-.741.083-1.828.68-3.256 1.777l-1.594 1.274L6 12.567l1.046 1.186c.98-.612 1.552-.92 1.717-.92z" fill="#FCFCFC"/>
  </g>
</svg>
