<?xml version="1.0" encoding="UTF-8"?>
<svg width="262px" height="193px" viewBox="0 0 262 193" version="1.1" xmlns="http://www.w3.org/2000/svg" xmlns:xlink="http://www.w3.org/1999/xlink">
    <!-- Generator: Sketch 59 (86127) - https://sketch.com -->
    <title>Logowhite</title>
    <desc>Created with Sketch.</desc>
    <g id="Page-1" stroke="none" stroke-width="1" fill="none" fill-rule="evenodd">
        <g id="Home_01" transform="translate(-57.000000, -403.000000)">
            <g id="Logowhite" transform="translate(56.000000, 404.000000)">
                <g id="Logo" stroke-width="1" fill-rule="evenodd" transform="translate(42.600000, 0.000000)" stroke="#FFFFFF">
                    <path d="M49.2,83.8756558 C49.2,83.8756558 32.8,83.8756558 0,83.8756558 L92.4,168.175656 L184.8,83.8756558 L138.9,83.8756558" id="Path" stroke-width="1.2"></path>
                    <path d="M70.5,103.375656 C58.1,94.5756558 51,88.0756558 49.2,83.8756558 C47.6581265,80.277951 46.8170791,73.5044824 47.4,67.9756558 C47.8378414,63.8228635 49.3705542,60.5198245 50.4,58.9756558 C52,56.5756558 54.7,52.8756558 58.5,47.8756558 L72.3,28.9756558 C77.3,23.1756558 81.6,20.2756558 85.2,20.2756558" id="Path-2" stroke-width="1.2"></path>
                    <path d="M71.7,95.5756558 C64.3,88.3756558 59.2,82.8756558 56.4,79.0756558 C52.2,73.3756558 51.6,69.4756558 51.6,63.1756558 C51.6,56.8756558 60.9,49.0756558 60.9,49.0756558 C60.9,49.0756558 62.3781889,47.1913427 68.1,40.3756558 C73.8218111,33.559969 73.1530469,32.5364043 79.8,27.4756558 C86.4469531,22.4149074 89.1,20.2756558 95.7,20.2756558 C102.3,20.2756558 105.9,23.8756558 110.1,28.6756558 C112.9,31.8756558 116.4,37.2756558 120.6,44.8756558 C127.906924,56.8241217 131.906924,65.2241217 132.6,70.0756558 C133.639614,77.3529571 129,82.0756558 126.6,83.8756558 C125,85.0756558 120.5,87.8756558 113.1,92.2756558" id="Path-3" stroke-width="1.2"></path>
                    <path d="M107.7,18.1756558 C113.7,24.5756558 117.1,28.3756558 117.9,29.5756558 C119.1,31.3756558 124.5,43.0756558 132.3,50.5756558 C140.1,58.0756558 143.1,67.6756558 143.1,71.2756558 C143.1,74.8756558 141.9,81.1756558 132.6,89.5756558 C126.4,95.1756558 120.3,99.7756558 114.3,103.375656" id="Path-4" stroke-width="1.2"></path>
                    <path d="M119.1,28.6756558 C128.1,40.4756558 133.4,48.5756558 135,52.9756558" id="Path-5" stroke-width="1.2"></path>
                    <path d="M55.5,51.1756558 C58.7351723,39.9424334 61.9351723,31.9424334 65.1,27.1756558 C69.8472416,20.0254896 73.5,19.3756558 79.5,13.9756558 C85.5,8.57565585 88.5402721,4.15543906 90.9,2.27565585 C93.2597279,0.395872632 94.488779,-0.379042762 97.5,0.175655847 C100.511221,0.730354456 99.8264074,2.25683774 102.3,4.07565585 C104.773593,5.89447395 107.4,7.37565585 109.2,9.77565585 C111,12.1756558 116.4,15.4756558 119.1,19.6756558 C120.9,22.4756558 122.8,27.9756558 124.8,36.1756558" id="Path-6" stroke-width="1.2"></path>
                    <polyline id="Path-7" stroke-width="1.2" points="65.4 43.9756558 65.1 59.5756558 73.2 67.3756558"></polyline>
                    <polyline id="Path-7-Copy" stroke-width="1.2" transform="translate(116.550000, 55.975656) scale(-1, 1) translate(-116.550000, -55.975656) " points="112.8 44.2756558 112.5 59.8756558 120.6 67.6756558"></polyline>
                    <polyline id="Path-8" stroke-width="1.2" points="66.3 60.7756558 66.3 78.1756558 72 89.8756558"></polyline>
                    <polyline id="Path-8-Copy" stroke-width="1.2" transform="translate(116.550000, 76.225656) scale(-1, 1) translate(-116.550000, -76.225656) " points="113.7 61.6756558 113.7 79.0756558 119.4 90.7756558"></polyline>
                    <polyline id="Path-9" stroke-width="1.2" points="88.2 44.8756558 74.4 39.4756558 69.9 44.5756558 69.9 41.8756558 74.1 36.7756558 87.9 42.4756558 89.7 63.7756558"></polyline>
                    <line x1="76.425" y1="49.0006558" x2="73.875" y2="46.4506558" id="Path-10" stroke-width="1.2"></line>
                    <path d="M73.2,47.2756558 C75.6,45.8756558 77.9,45.3756558 80.1,45.7756558 C82.3,46.1756558 83.9,46.9756558 84.9,48.1756558" id="Path-11" stroke-width="1.2"></path>
                    <circle id="Oval" stroke-width="1.2" cx="79.8" cy="47.5756558" r="1.5"></circle>
                    <line x1="72.9" y1="52.6756558" x2="79.8" y2="57.4756558" id="Path-12" stroke-width="1.2"></line>
                    <line x1="78.3" y1="58.6756558" x2="84" y2="54.7756558" id="Path-13" stroke-width="1.2"></line>
                    <path d="M70.5,103.375656 C58.1,94.5756558 51,88.0756558 49.2,83.8756558 C47.6581265,80.277951 46.8170791,73.5044824 47.4,67.9756558 C47.8378414,63.8228635 49.3705542,60.5198245 50.4,58.9756558 C52,56.5756558 54.7,52.8756558 58.5,47.8756558 L72.3,28.9756558 C77.3,23.1756558 81.6,20.2756558 85.2,20.2756558" id="Path-2" stroke-width="1.2"></path>
                    <path d="M71.7,95.5756558 C64.3,88.3756558 59.2,82.8756558 56.4,79.0756558 C52.2,73.3756558 51.6,69.4756558 51.6,63.1756558 C51.6,56.8756558 60.9,49.0756558 60.9,49.0756558 C60.9,49.0756558 62.3781889,47.1913427 68.1,40.3756558 C73.8218111,33.559969 73.1530469,32.5364043 79.8,27.4756558 C86.4469531,22.4149074 89.1,20.2756558 95.7,20.2756558 C102.3,20.2756558 105.9,23.8756558 110.1,28.6756558 C112.9,31.8756558 116.4,37.2756558 120.6,44.8756558 C127.906924,56.8241217 131.906924,65.2241217 132.6,70.0756558 C133.639614,77.3529571 129,82.0756558 126.6,83.8756558 C125,85.0756558 120.5,87.8756558 113.1,92.2756558" id="Path-3" stroke-width="1.2"></path>
                    <path d="M55.5,51.1756558 C58.7351723,39.9424334 61.9351723,31.9424334 65.1,27.1756558 C69.8472416,20.0254896 73.5,19.3756558 79.5,13.9756558 C85.5,8.57565585 88.5402721,4.15543906 90.9,2.27565585 C93.2597279,0.395872632 94.488779,-0.379042762 97.5,0.175655847 C100.511221,0.730354456 99.8264074,2.25683774 102.3,4.07565585 C104.773593,5.89447395 107.4,7.37565585 109.2,9.77565585 C111,12.1756558 116.4,15.4756558 119.1,19.6756558 C120.9,22.4756558 122.8,27.9756558 124.8,36.1756558" id="Path-6" stroke-width="1.2"></path>
                    <polyline id="Path-7" stroke-width="1.2" points="65.4 43.9756558 65.1 59.5756558 73.2 67.3756558"></polyline>
                    <polyline id="Path-9" stroke-width="1.2" points="88.2 44.8756558 74.4 39.4756558 69.9 44.5756558 69.9 41.8756558 74.1 36.7756558 87.9 42.4756558 89.7 63.7756558"></polyline>
                    <line x1="76.425" y1="49.0006558" x2="73.875" y2="46.4506558" id="Path-10" stroke-width="1.2"></line>
                    <path d="M73.2,47.2756558 C75.6,45.8756558 77.9,45.3756558 80.1,45.7756558 C82.3,46.1756558 83.9,46.9756558 84.9,48.1756558" id="Path-11" stroke-width="1.2"></path>
                    <circle id="Oval" stroke-width="1.2" cx="79.8" cy="47.5756558" r="1.5"></circle>
                    <line x1="72.9" y1="52.6756558" x2="79.8" y2="57.4756558" id="Path-12" stroke-width="1.2"></line>
                    <line x1="78.3" y1="58.6756558" x2="84" y2="54.7756558" id="Path-13" stroke-width="1.2"></line>
                    <g id="Group" transform="translate(72.900000, 45.475656)" stroke-width="1.2">
                        <line x1="3.525" y1="3.525" x2="0.975" y2="0.975" id="Path-10"></line>
                        <path d="M0.3,1.8 C2.7,0.4 5,-0.1 7.2,0.3 C9.4,0.7 11,1.5 12,2.7" id="Path-11"></path>
                        <circle id="Oval" cx="6.9" cy="2.1" r="1.5"></circle>
                        <line x1="0" y1="7.2" x2="6.9" y2="12" id="Path-12"></line>
                        <line x1="5.4" y1="13.2" x2="11.1" y2="9.3" id="Path-13"></line>
                    </g>
                    <g id="Group-Copy" transform="translate(107.500000, 52.075656) scale(-1, 1) translate(-107.500000, -52.075656) translate(99.500000, 46.075656)" stroke-width="1.2">
                        <line x1="6.375" y1="4.125" x2="4.2" y2="2.4" id="Path-10"></line>
                        <path d="M3.6,3 C4.50447189,2.13287971 5.10447189,1.63287971 5.4,1.5 C7.31918002,0.637069951 9.01280603,0.275055641 10.8,0.6 C13,1 14.5,1.4 15.3,1.8" id="Path-11"></path>
                        <circle id="Oval" cx="9.9" cy="2.1" r="1.5"></circle>
                        <line x1="0.6" y1="7.2" x2="6.6" y2="11.4" id="Path-12"></line>
                        <line x1="4.2" y1="12" x2="12.6" y2="10.2" id="Path-13"></line>
                    </g>
                    <polyline id="Path-14" stroke-width="1.2" points="89.7 60.1756558 82.2 66.1756558 93 73.9756558 102.9 66.1756558 96.6 59.8756558"></polyline>
                    <path d="M96.6,63.7756558 L97.5,43.3756558 C106.3,39.5756558 110.7,37.6756558 110.7,37.6756558 C110.7,37.6756558 112.2,39.3756558 115.2,42.7756558 L115.2,46.0756558 L111,40.3756558 L97.2,46.0756558" id="Path-15" stroke-width="1.2"></path>
                    <polyline id="Path-16" stroke-width="1.2" points="72 107.875656 72 121.075656 92.4 167.275656 113.7 121.075656 113.7 107.875656"></polyline>
                    <line x1="85.2" y1="83.5756558" x2="99.3" y2="83.2756558" id="Path-17" stroke-width="1.2"></line>
                    <path d="M67.2,107.875656 C67.678181,107.875656 69.6629633,105.72211 70.8,103.975656 C71.8030172,102.435052 72,101.275656 72,101.275656 C72,101.275656 72,95.0756558 72,82.6756558 C75.1309402,76.9069949 77.9309402,73.3069949 80.4,71.8756558 C81.9144108,70.9977365 84,70.3756558 87.3,70.3756558 C87.4999994,70.3756558 89.3999994,71.5756558 93,73.9756558 C95.1009021,72.0349778 96.7009021,70.9349778 97.8,70.6756558 C99.0946816,70.3701878 101.487675,70.9197119 102.6,71.2756558 C106.393138,72.4894601 111.9,79.6756558 112.5,82.6756558 C113.1,85.6756558 112.5,101.275656 112.5,101.275656 C112.5,101.275656 113.858317,104.063598 115.2,105.775656 C116.560236,107.511389 117.90206,108.173596 117.6,108.475656 C117,109.075656 111.3,109.075656 108.3,101.875656 C105.3,94.6756558 105.271265,95.062797 102.9,89.8756558 C100.528735,84.6885147 99,82.0756558 97.8,80.5756558 C96.6,79.0756558 94.8,77.8756558 92.4,77.8756558 C90,77.8756558 88.8,78.4756558 87,80.5756558 C85.2,82.6756558 79.4950724,96.8626241 77.4,100.675656 C75.3049276,104.488688 73.0932277,106.220126 72,107.275656 C70.9067723,108.331186 69.2954044,108.475656 68.4,108.475656 C67.5045956,108.475656 66.3,107.875656 67.2,107.875656 Z" id="Path-18" stroke-width="1.2"></path>
                    <line x1="77.1" y1="75.4756558" x2="77.1" y2="132.475656" id="Path-19" stroke-width="1.2"></line>
                    <line x1="81.9" y1="71.2756558" x2="81.9" y2="143.275656" id="Path-19-Copy" stroke-width="1.2"></line>
                    <line x1="92.1" y1="83.8756558" x2="92.1" y2="166.075656" id="Path-19-Copy-3" stroke-width="1.2"></line>
                    <line x1="96.9" y1="83.2756558" x2="96.9" y2="155.875656" id="Path-19-Copy-4" stroke-width="1.2"></line>
                    <line x1="101.7" y1="71.2756558" x2="101.7" y2="145.675656" id="Path-19-Copy-5" stroke-width="1.2"></line>
                    <line x1="107.7" y1="75.4756558" x2="107.7" y2="133.675656" id="Path-19-Copy-6" stroke-width="1.2"></line>
                    <line x1="87.3" y1="83.8756558" x2="87.3" y2="155.275656" id="Path-19-Copy-2" stroke-width="1.2"></line>
                    <line x1="87.3" y1="70.6756558" x2="87.3" y2="79.6756558" id="Path-19-Copy-7" stroke-width="1.2"></line>
                    <line x1="92.7" y1="74.2756558" x2="92.7" y2="77.8756558" id="Path-19-Copy-8" stroke-width="1.2"></line>
                    <line x1="96.9" y1="70.6756558" x2="96.9" y2="79.6756558" id="Path-19-Copy-8" stroke-width="1.2"></line>
                    <line x1="72" y1="39.4756558" x2="72" y2="42.4756558" id="Path-20" stroke-width="0.6"></line>
                    <line x1="75.3" y1="37.0756558" x2="75.3" y2="40.0756558" id="Path-20-Copy" stroke-width="0.6"></line>
                    <line x1="77.7" y1="38.2756558" x2="77.7" y2="41.2756558" id="Path-20-Copy-2" stroke-width="0.6"></line>
                    <line x1="80.7" y1="39.4756558" x2="80.7" y2="42.4756558" id="Path-20-Copy-3" stroke-width="0.6"></line>
                    <line x1="83.7" y1="40.6756558" x2="83.7" y2="43.6756558" id="Path-20-Copy-4" stroke-width="0.6"></line>
                    <line x1="101.7" y1="41.2756558" x2="101.7" y2="44.2756558" id="Path-20-Copy-5" stroke-width="0.6"></line>
                    <line x1="104.1" y1="40.0756558" x2="104.1" y2="43.0756558" id="Path-20-Copy-6" stroke-width="0.6"></line>
                    <line x1="107.1" y1="38.8756558" x2="107.1" y2="41.8756558" id="Path-20-Copy-7" stroke-width="0.6"></line>
                    <line x1="110.1" y1="37.6756558" x2="110.1" y2="40.6756558" id="Path-20-Copy-8" stroke-width="0.6"></line>
                    <line x1="113.1" y1="40.6756558" x2="113.1" y2="43.6756558" id="Path-20-Copy-9" stroke-width="0.6"></line>
                </g>
                <path d="M19.1258789,169.2 L19.1258789,156.486621 L24.0726563,156.486621 L24.0726563,169.2 L28.2459961,169.2 L28.2459961,141.678516 L24.0726563,141.678516 L24.0726563,153.199512 L19.1258789,153.199512 L19.1258789,141.678516 L14.9525391,141.678516 L14.9525391,169.2 L19.1258789,169.2 Z M38.8170234,141.275684 L44.3761055,138.600879 L42.2974922,135.909961 L37.1251289,139.39043 L38.8170234,141.275684 Z M43.8121406,169.2 L43.8121406,165.912891 L37.6246406,165.912891 L37.6246406,156.486621 L42.2813789,156.486621 L42.2813789,153.199512 L37.6246406,153.199512 L37.6246406,144.965625 L43.6510078,144.965625 L43.6510078,141.678516 L33.4513008,141.678516 L33.4513008,169.2 L43.8121406,169.2 Z M53.2230117,169.441699 C55.1136367,169.430957 56.563832,168.899219 57.5735977,167.846484 C58.5833633,166.79375 59.0882461,165.160938 59.0882461,162.948047 L59.0882461,162.948047 L59.0882461,160.402148 L55.2693984,160.402148 L55.2693984,163.093066 C55.2693984,163.640918 55.213002,164.11626 55.100209,164.519092 C54.987416,164.921924 54.8370254,165.254932 54.6490371,165.518115 C54.4610488,165.781299 54.2435195,165.974658 53.9964492,166.098193 C53.7493789,166.221729 53.4915664,166.283496 53.2230117,166.283496 C52.8040664,166.283496 52.4468887,166.210986 52.1514785,166.065967 C51.8560684,165.920947 51.6170547,165.676563 51.4344375,165.332813 C51.2518203,164.989063 51.1202285,164.53252 51.0396621,163.963184 C50.9590957,163.393848 50.9188125,162.679492 50.9188125,161.820117 L50.9188125,161.820117 L50.9188125,149.251758 C50.9188125,148.370898 50.9698379,147.635059 51.0718887,147.044238 C51.1739395,146.453418 51.3216445,145.978076 51.5150039,145.618213 C51.7083633,145.25835 51.9500625,145.003223 52.2401016,144.852832 C52.5301406,144.702441 52.8685195,144.627246 53.2552383,144.627246 C53.8997695,144.627246 54.3885391,145.003223 54.7215469,145.755176 C55.0545547,146.507129 55.2210586,147.64043 55.2210586,149.155078 L55.2210586,149.155078 L55.2210586,150.556934 L58.6048477,150.556934 C58.7230117,149.955371 58.8116348,149.404834 58.8707168,148.905322 C58.9297988,148.405811 58.9593398,147.860645 58.9593398,147.269824 C58.9593398,146.474902 58.8653457,145.722949 58.6773574,145.013965 C58.4893691,144.30498 58.1724746,143.684619 57.7266738,143.152881 C57.280873,142.621143 56.6900527,142.202197 55.9542129,141.896045 C55.218373,141.589893 54.3026016,141.436816 53.2068984,141.436816 C52.7879531,141.436816 52.3340957,141.469043 51.8453262,141.533496 C51.3565566,141.597949 50.8651016,141.734912 50.3709609,141.944385 C49.8768203,142.153857 49.398793,142.457324 48.9368789,142.854785 C48.4749648,143.252246 48.0667617,143.78667 47.7122695,144.458057 C47.3577773,145.129443 47.0731094,145.956592 46.8582656,146.939502 C46.6434219,147.922412 46.536,149.106738 46.536,150.49248 L46.536,150.49248 L46.536,160.241016 C46.536,161.616016 46.6407363,162.800342 46.850209,163.793994 C47.0596816,164.787646 47.3389785,165.622852 47.6880996,166.299609 C48.0372207,166.976367 48.4400527,167.521533 48.8965957,167.935107 C49.3531387,168.348682 49.831166,168.668262 50.3306777,168.893848 C50.8301895,169.119434 51.3297012,169.267139 51.8292129,169.336963 C52.3287246,169.406787 52.7933242,169.441699 53.2230117,169.441699 Z M69.5625938,169.2 L69.5625938,144.965625 L73.9776328,144.965625 L73.9776328,141.678516 L60.9581016,141.678516 L60.9581016,144.965625 L65.3892539,144.965625 L65.3892539,169.2 L69.5625938,169.2 Z M83.3562773,169.441699 C83.7537383,169.441699 84.1995391,169.404102 84.6936797,169.328906 C85.1878203,169.253711 85.6846465,169.100635 86.1841582,168.869678 C86.6836699,168.638721 87.1724395,168.316455 87.6504668,167.902881 C88.1284941,167.489307 88.550125,166.941455 88.9153594,166.259326 C89.2805937,165.577197 89.5760039,164.744678 89.8015898,163.761768 C90.0271758,162.778857 90.1399687,161.605273 90.1399687,160.241016 L90.1399687,160.241016 L90.1399687,150.49248 C90.1399687,149.085254 90.0298613,147.884814 89.8096465,146.891162 C89.5894316,145.89751 89.296707,145.06499 88.9314727,144.393604 C88.5662383,143.722217 88.147293,143.190479 87.6746367,142.798389 C87.2019805,142.406299 86.7158965,142.110889 86.2163848,141.912158 C85.716873,141.713428 85.2173613,141.584521 84.7178496,141.525439 C84.2183379,141.466357 83.7644805,141.436816 83.3562773,141.436816 C82.9265898,141.436816 82.4593047,141.469043 81.9544219,141.533496 C81.4495391,141.597949 80.9419707,141.734912 80.4317168,141.944385 C79.9214629,142.153857 79.4326934,142.457324 78.9654082,142.854785 C78.498123,143.252246 78.0818633,143.78667 77.7166289,144.458057 C77.3513945,145.129443 77.0586699,145.956592 76.8384551,146.939502 C76.6182402,147.922412 76.5081328,149.106738 76.5081328,150.49248 L76.5081328,150.49248 L76.5081328,160.241016 C76.5081328,161.616016 76.6155547,162.800342 76.8303984,163.793994 C77.0452422,164.787646 77.3325957,165.622852 77.692459,166.299609 C78.0523223,166.976367 78.4658965,167.521533 78.9331816,167.935107 C79.4004668,168.348682 79.8865508,168.668262 80.3914336,168.893848 C80.8963164,169.119434 81.4065703,169.267139 81.9221953,169.336963 C82.4378203,169.406787 82.9158477,169.441699 83.3562773,169.441699 Z M83.3562773,166.299609 C82.937332,166.299609 82.5720977,166.229785 82.2605742,166.090137 C81.9490508,165.950488 81.6912383,165.708789 81.4871367,165.365039 C81.2830352,165.021289 81.129959,164.567432 81.0279082,164.003467 C80.9258574,163.439502 80.874832,162.727832 80.874832,161.868457 L80.874832,161.868457 L80.874832,149.348438 C80.874832,148.467578 80.9258574,147.731738 81.0279082,147.140918 C81.129959,146.550098 81.2830352,146.074756 81.4871367,145.714893 C81.6912383,145.355029 81.9490508,145.099902 82.2605742,144.949512 C82.5720977,144.799121 82.937332,144.723926 83.3562773,144.723926 C83.7644805,144.723926 84.1216582,144.799121 84.4278105,144.949512 C84.7339629,145.099902 84.9864043,145.355029 85.1851348,145.714893 C85.3838652,146.074756 85.5342559,146.550098 85.6363066,147.140918 C85.7383574,147.731738 85.7893828,148.467578 85.7893828,149.348438 L85.7893828,149.348438 L85.7893828,161.868457 C85.7893828,162.727832 85.7383574,163.439502 85.6363066,164.003467 C85.5342559,164.567432 85.3838652,165.021289 85.1851348,165.365039 C84.9864043,165.708789 84.7339629,165.950488 84.4278105,166.090137 C84.1216582,166.229785 83.7644805,166.299609 83.3562773,166.299609 Z M98.6484961,169.2 L98.6484961,158.903613 L100.211484,158.903613 L103.869199,169.2 L108.284238,169.2 L103.869199,158.194629 C105.040098,157.614551 105.926328,156.666553 106.527891,155.350635 C107.129453,154.034717 107.430234,152.329395 107.430234,150.234668 L107.430234,150.234668 L107.430234,149.541797 C107.430234,148.295703 107.295957,147.234912 107.027402,146.359424 C106.758848,145.483936 106.40167,144.756152 105.955869,144.176074 C105.510068,143.595996 104.999814,143.139453 104.425107,142.806445 C103.8504,142.473438 103.254209,142.223682 102.636533,142.057178 C102.018857,141.890674 101.401182,141.785938 100.783506,141.742969 C100.16583,141.7 99.5991797,141.678516 99.0835547,141.678516 L99.0835547,141.678516 L94.5557227,141.678516 L94.5557227,169.2 L98.6484961,169.2 Z M99.2769141,155.89043 L98.6484961,155.89043 L98.6484961,144.723926 L99.2769141,144.723926 C100.039609,144.723926 100.673398,144.804492 101.178281,144.965625 C101.683164,145.126758 102.088682,145.373828 102.394834,145.706836 C102.700986,146.039844 102.918516,146.46416 103.047422,146.979785 C103.176328,147.49541 103.240781,148.107715 103.240781,148.816699 L103.240781,148.816699 L103.240781,150.991992 C103.240781,151.91582 103.170957,152.691943 103.031309,153.320361 C102.89166,153.948779 102.666074,154.453662 102.354551,154.83501 C102.043027,155.216357 101.634824,155.487598 101.129941,155.64873 C100.625059,155.809863 100.007383,155.89043 99.2769141,155.89043 L99.2769141,155.89043 Z" id="HÉCTOR" fill="#FFFFFF" fill-rule="nonzero"></path>
                <path d="M170.651953,168.6 L170.651953,159.495996 C170.651953,158.099512 170.638525,156.756738 170.61167,155.467676 C170.584814,154.178613 170.549902,152.994287 170.506934,151.914697 C170.463965,150.835107 170.415625,149.881738 170.361914,149.05459 C170.308203,148.227441 170.259863,147.572168 170.216895,147.08877 L170.216895,147.08877 L170.523047,147.08877 L174.7125,165.055078 L177.355078,165.055078 L181.512305,147.08877 L181.818457,147.08877 C181.775488,147.572168 181.727148,148.227441 181.673438,149.05459 C181.619727,149.881738 181.571387,150.835107 181.528418,151.914697 C181.485449,152.994287 181.450537,154.178613 181.423682,155.467676 C181.396826,156.756738 181.383398,158.099512 181.383398,159.495996 L181.383398,159.495996 L181.383398,168.6 L185.282813,168.6 L185.282813,141.078516 L179.949316,141.078516 L177.226172,151.729395 C176.946875,152.911035 176.72666,154.036279 176.565527,155.105127 C176.404395,156.173975 176.248633,157.181055 176.098242,158.126367 L176.098242,158.126367 L175.969336,158.126367 C175.818945,157.181055 175.663184,156.173975 175.502051,155.105127 C175.340918,154.036279 175.120703,152.911035 174.841406,151.729395 L174.841406,151.729395 L172.198828,141.078516 L166.752539,141.078516 L166.752539,168.6 L170.651953,168.6 Z M193.667555,168.6 L194.392653,163.669336 L199.419997,163.669336 L200.177321,168.6 L204.399001,168.6 L199.307204,141.078516 L194.505446,141.078516 L189.429763,168.6 L193.667555,168.6 Z M198.936598,160.527246 L194.876052,160.527246 L196.825759,146.814844 L197.003005,146.814844 L198.936598,160.527246 Z M214.475638,168.841699 C216.366263,168.830957 217.816459,168.299219 218.826224,167.246484 C219.83599,166.19375 220.340873,164.560938 220.340873,162.348047 L220.340873,162.348047 L220.340873,159.802148 L216.522025,159.802148 L216.522025,162.493066 C216.522025,163.040918 216.465629,163.51626 216.352836,163.919092 C216.240043,164.321924 216.089652,164.654932 215.901664,164.918115 C215.713675,165.181299 215.496146,165.374658 215.249076,165.498193 C215.002005,165.621729 214.744193,165.683496 214.475638,165.683496 C214.056693,165.683496 213.699515,165.610986 213.404105,165.465967 C213.108695,165.320947 212.869681,165.076563 212.687064,164.732813 C212.504447,164.389063 212.372855,163.93252 212.292289,163.363184 C212.211722,162.793848 212.171439,162.079492 212.171439,161.220117 L212.171439,161.220117 L212.171439,148.651758 C212.171439,147.770898 212.222464,147.035059 212.324515,146.444238 C212.426566,145.853418 212.574271,145.378076 212.76763,145.018213 C212.96099,144.65835 213.202689,144.403223 213.492728,144.252832 C213.782767,144.102441 214.121146,144.027246 214.507865,144.027246 C215.152396,144.027246 215.641166,144.403223 215.974173,145.155176 C216.307181,145.907129 216.473685,147.04043 216.473685,148.555078 L216.473685,148.555078 L216.473685,149.956934 L219.857474,149.956934 C219.975638,149.355371 220.064261,148.804834 220.123343,148.305322 C220.182425,147.805811 220.211966,147.260645 220.211966,146.669824 C220.211966,145.874902 220.117972,145.122949 219.929984,144.413965 C219.741996,143.70498 219.425101,143.084619 218.9793,142.552881 C218.5335,142.021143 217.942679,141.602197 217.206839,141.296045 C216.471,140.989893 215.555228,140.836816 214.459525,140.836816 C214.04058,140.836816 213.586722,140.869043 213.097953,140.933496 C212.609183,140.997949 212.117728,141.134912 211.623588,141.344385 C211.129447,141.553857 210.65142,141.857324 210.189505,142.254785 C209.727591,142.652246 209.319388,143.18667 208.964896,143.858057 C208.610404,144.529443 208.325736,145.356592 208.110892,146.339502 C207.896048,147.322412 207.788627,148.506738 207.788627,149.89248 L207.788627,149.89248 L207.788627,159.641016 C207.788627,161.016016 207.893363,162.200342 208.102836,163.193994 C208.312308,164.187646 208.591605,165.022852 208.940726,165.699609 C209.289847,166.376367 209.692679,166.921533 210.149222,167.335107 C210.605765,167.748682 211.083793,168.068262 211.583304,168.293848 C212.082816,168.519434 212.582328,168.667139 213.081839,168.736963 C213.581351,168.806787 214.045951,168.841699 214.475638,168.841699 Z M227.178741,140.675684 L232.737823,138.000879 L230.659209,135.309961 L225.486846,138.79043 L227.178741,140.675684 Z M229.28958,168.6 L229.28958,141.078516 L225.116241,141.078516 L225.116241,168.6 L229.28958,168.6 Z M239.188972,168.6 L239.188972,160.511133 C239.188972,159.114648 239.172859,157.908838 239.140632,156.893701 C239.108405,155.878564 239.070808,154.989648 239.027839,154.226953 C238.98487,153.464258 238.93653,152.800928 238.88282,152.236963 C238.829109,151.672998 238.78614,151.149316 238.753913,150.665918 L238.753913,150.665918 L238.88282,150.665918 L245.521491,168.6 L248.937507,168.6 L248.937507,141.078516 L245.199226,141.078516 L245.199226,151.11709 C245.199226,152.180566 245.215339,153.136621 245.247566,153.985254 C245.279792,154.833887 245.31739,155.593896 245.360359,156.265283 C245.403327,156.93667 245.451667,157.535547 245.505378,158.061914 C245.559089,158.588281 245.602058,159.066309 245.634284,159.495996 L245.634284,159.495996 L245.537605,159.495996 L238.866706,141.078516 L235.482917,141.078516 L235.482917,168.6 L239.188972,168.6 Z" id="MACÍN" fill="#FFFFFF" fill-rule="nonzero"></path>
                <path d="M4.0362,186.786 C4.5074,186.786 4.96,186.6961 5.394,186.5163 C5.828,186.3365 6.2093,186.0823 6.5379,185.7537 C6.8665,185.4251 7.13,185.0407 7.3284,184.6005 C7.5268,184.1603 7.626,183.6798 7.626,183.159 L7.626,183.159 L7.626,177.1698 C7.626,176.6614 7.5392,176.1778 7.3656,175.719 C7.192,175.2602 6.9564,174.8603 6.6588,174.5193 C6.3612,174.1783 6.0047,173.9055 5.5893,173.7009 C5.1739,173.4963 4.7244,173.394 4.2408,173.394 C4.0672,173.394 3.7293,173.4374 3.2271,173.5242 C2.7249,173.611 2.1018,173.8094 1.3578,174.1194 L1.3578,174.1194 L1.3578,186.0978 C1.767,186.259 2.1204,186.3861 2.418,186.4791 C2.7156,186.5721 2.9698,186.6403 3.1806,186.6837 C3.3914,186.7271 3.5619,186.755 3.6921,186.7674 C3.8223,186.7798 3.937,186.786 4.0362,186.786 Z M4.185,185.6886 L3.9525,185.6886 C3.8595,185.6886 3.7448,185.6762 3.6084,185.6514 C3.472,185.6266 3.3046,185.5832 3.1062,185.5212 C2.9078,185.4592 2.6722,185.3662 2.3994,185.2422 L2.3994,185.2422 L2.3994,175.0122 C2.6722,174.9006 2.976,174.7828 3.3108,174.6588 C3.6456,174.5348 3.9556,174.4728 4.2408,174.4728 C4.5508,174.4728 4.898,174.5782 5.2824,174.789 C5.5924,174.9874 5.8745,175.2943 6.1287,175.7097 C6.3829,176.1251 6.51,176.6118 6.51,177.1698 L6.51,177.1698 L6.5472,182.9916 C6.5472,183.3512 6.4821,183.6922 6.3519,184.0146 C6.2217,184.337 6.0481,184.6222 5.8311,184.8702 C5.6141,185.1182 5.363,185.3166 5.0778,185.4654 C4.7926,185.6142 4.495,185.6886 4.185,185.6886 L4.185,185.6886 Z M11.4137823,175.0308 L11.4137823,173.58 L10.4279823,173.58 L10.4279823,175.0308 L11.4137823,175.0308 Z M11.4137823,186.6 L11.4137823,177.3 L10.4279823,177.3 L10.4279823,186.6 L11.4137823,186.6 Z M15.1457646,186.5814 L15.1457646,178.881 C15.4681646,178.5834 15.7905646,178.3819 16.1129646,178.2765 C16.4353646,178.1711 16.6895646,178.1184 16.8755646,178.1184 C16.9995646,178.1184 17.1142646,178.1215 17.2196646,178.1277 C17.3250646,178.1339 17.4366646,178.1556 17.5544646,178.1928 C17.6722646,178.23 17.7993646,178.2827 17.9357646,178.3509 C18.0721646,178.4191 18.2457646,178.5152 18.4565646,178.6392 L18.4565646,178.6392 L18.9773646,177.858 C18.4441646,177.5604 18.0287646,177.362 17.7311646,177.2628 C17.4335646,177.1636 17.1607646,177.114 16.9127646,177.114 C16.6771646,177.114 16.3950646,177.1543 16.0664646,177.2349 C15.7378646,177.3155 15.3937646,177.517 15.0341646,177.8394 L15.0341646,177.8394 L14.3831646,177.207 L13.7321646,177.8766 L14.2157646,178.3602 L14.2157646,186.5814 L15.1457646,186.5814 Z M23.3975468,186.7674 C23.4595468,186.7674 23.6362468,186.7426 23.9276468,186.693 C24.2190468,186.6434 24.5259468,186.5876 24.8483468,186.5256 C25.2203468,186.4636 25.6357468,186.383 26.0945468,186.2838 L26.0945468,186.2838 L25.8713468,185.298 C25.4497468,185.3972 25.0653468,185.484 24.7181468,185.5584 C24.4205468,185.6204 24.1384468,185.6793 23.8718468,185.7351 C23.6052468,185.7909 23.4471468,185.8188 23.3975468,185.8188 C22.9139468,185.8188 22.4830468,185.6731 22.1048468,185.3817 C21.7266468,185.0903 21.4941468,184.6966 21.4073468,184.2006 L21.4073468,184.2006 L21.4073468,183.0846 C21.6181468,183.1094 21.8227468,183.128 22.0211468,183.1404 C22.2195468,183.1528 22.4179468,183.159 22.6163468,183.159 C23.0999468,183.159 23.5556468,183.1125 23.9834468,183.0195 C24.4112468,182.9265 24.7863468,182.7684 25.1087468,182.5452 C25.4311468,182.322 25.6853468,182.0337 25.8713468,181.6803 C26.0573468,181.3269 26.1503468,180.8898 26.1503468,180.369 L26.1503468,180.369 L26.1503468,179.7552 C26.1503468,179.3832 26.0852468,179.036 25.9550468,178.7136 C25.8248468,178.3912 25.6419468,178.1122 25.4063468,177.8766 C25.1707468,177.641 24.8979468,177.455 24.5879468,177.3186 C24.2779468,177.1822 23.9493468,177.114 23.6021468,177.114 L23.6021468,177.114 L22.9697468,177.114 C22.6101468,177.114 22.2784468,177.1822 21.9746468,177.3186 C21.6708468,177.455 21.4042468,177.641 21.1748468,177.8766 C20.9454468,178.1122 20.7656468,178.3912 20.6354468,178.7136 C20.5052468,179.036 20.4401468,179.3832 20.4401468,179.7552 L20.4401468,179.7552 L20.4401468,183.8658 C20.4401468,184.2874 20.5176468,184.6749 20.6726468,185.0283 C20.8276468,185.3817 21.0415468,185.6886 21.3143468,185.949 C21.5871468,186.2094 21.9033468,186.4109 22.2629468,186.5535 C22.6225468,186.6961 23.0007468,186.7674 23.3975468,186.7674 Z M23.6393468,182.1174 L23.6021468,182.1174 L21.4073468,182.0988 L21.4073468,179.6622 C21.4073468,179.4142 21.4569468,179.191 21.5561468,178.9926 C21.6553468,178.7942 21.7855468,178.6268 21.9467468,178.4904 C22.1079468,178.354 22.2970468,178.2486 22.5140468,178.1742 C22.7310468,178.0998 22.9573468,178.0626 23.1929468,178.0626 C23.4533468,178.0626 23.7044468,178.0905 23.9462468,178.1463 C24.1880468,178.2021 24.3988468,178.292 24.5786468,178.416 C24.7584468,178.54 24.9041468,178.7043 25.0157468,178.9089 C25.1273468,179.1135 25.1831468,179.3646 25.1831468,179.6622 L25.1831468,179.6622 L25.1831468,180.4434 C25.1831468,180.6666 25.1428468,180.8774 25.0622468,181.0758 C24.9816468,181.2742 24.8731468,181.4509 24.7367468,181.6059 C24.6003468,181.7609 24.4391468,181.8849 24.2531468,181.9779 C24.0671468,182.0709 23.8625468,182.1174 23.6393468,182.1174 L23.6393468,182.1174 Z M31.3145291,186.7488 C31.4881291,186.7488 31.6896291,186.7302 31.9190291,186.693 C32.1484291,186.6558 32.3623291,186.6124 32.5607291,186.5628 C32.7839291,186.5132 33.0195291,186.445 33.2675291,186.3582 L33.2675291,186.3582 L32.9699291,185.5026 C32.7467291,185.5646 32.5297291,185.6204 32.3189291,185.67 C32.1453291,185.7072 31.9655291,185.7413 31.7795291,185.7723 C31.5935291,185.8033 31.4385291,185.8188 31.3145291,185.8188 C31.0417291,185.8188 30.7844291,185.7723 30.5426291,185.6793 C30.3008291,185.5863 30.0869291,185.453 29.9009291,185.2794 C29.7149291,185.1058 29.5692291,184.8981 29.4638291,184.6563 C29.3584291,184.4145 29.3057291,184.1448 29.3057291,183.8472 L29.3057291,183.8472 L29.3057291,179.9598 C29.3057291,179.3646 29.5010291,178.8903 29.8916291,178.5369 C30.2822291,178.1835 30.7503291,178.0068 31.2959291,178.0068 C31.4695291,178.0068 31.6493291,178.0254 31.8353291,178.0626 C32.0213291,178.0998 32.2011291,178.1432 32.3747291,178.1928 C32.5731291,178.2424 32.7653291,178.2982 32.9513291,178.3602 L32.9513291,178.3602 L33.1745291,177.5604 C32.9637291,177.4736 32.7467291,177.3992 32.5235291,177.3372 C32.3375291,177.2752 32.1360291,177.2194 31.9190291,177.1698 C31.7020291,177.1202 31.4943291,177.0954 31.2959291,177.0954 C30.8867291,177.0954 30.5054291,177.1667 30.1520291,177.3093 C29.7986291,177.4519 29.4917291,177.6472 29.2313291,177.8952 C28.9709291,178.1432 28.7632291,178.4439 28.6082291,178.7973 C28.4532291,179.1507 28.3757291,179.5382 28.3757291,179.9598 L28.3757291,179.9598 L28.3757291,183.8472 C28.3757291,184.2688 28.4532291,184.6563 28.6082291,185.0097 C28.7632291,185.3631 28.9740291,185.67 29.2406291,185.9304 C29.5072291,186.1908 29.8172291,186.3923 30.1706291,186.5349 C30.5240291,186.6775 30.9053291,186.7488 31.3145291,186.7488 Z M37.9481114,186.7488 C38.1217114,186.7488 38.3232114,186.7302 38.5526114,186.693 C38.7820114,186.6558 38.9959114,186.6124 39.1943114,186.5628 C39.4175114,186.5132 39.6531114,186.445 39.9011114,186.3582 L39.9011114,186.3582 L39.6035114,185.5026 C39.3803114,185.5646 39.1633114,185.6204 38.9525114,185.67 C38.7789114,185.7072 38.5991114,185.7413 38.4131114,185.7723 C38.2271114,185.8033 38.0721114,185.8188 37.9481114,185.8188 C37.6753114,185.8188 37.4180114,185.7723 37.1762114,185.6793 C36.9344114,185.5863 36.7205114,185.453 36.5345114,185.2794 C36.3485114,185.1058 36.2028114,184.8981 36.0974114,184.6563 C35.9920114,184.4145 35.9393114,184.1448 35.9393114,183.8472 L35.9393114,183.8472 L35.9393114,179.9598 C35.9393114,179.3646 36.1346114,178.8903 36.5252114,178.5369 C36.9158114,178.1835 37.3839114,178.0068 37.9295114,178.0068 C38.1031114,178.0068 38.2829114,178.0254 38.4689114,178.0626 C38.6549114,178.0998 38.8347114,178.1432 39.0083114,178.1928 C39.2067114,178.2424 39.3989114,178.2982 39.5849114,178.3602 L39.5849114,178.3602 L39.8081114,177.5604 C39.5973114,177.4736 39.3803114,177.3992 39.1571114,177.3372 C38.9711114,177.2752 38.7696114,177.2194 38.5526114,177.1698 C38.3356114,177.1202 38.1279114,177.0954 37.9295114,177.0954 C37.5203114,177.0954 37.1390114,177.1667 36.7856114,177.3093 C36.4322114,177.4519 36.1253114,177.6472 35.8649114,177.8952 C35.6045114,178.1432 35.3968114,178.4439 35.2418114,178.7973 C35.0868114,179.1507 35.0093114,179.5382 35.0093114,179.9598 L35.0093114,179.9598 L35.0093114,183.8472 C35.0093114,184.2688 35.0868114,184.6563 35.2418114,185.0097 C35.3968114,185.3631 35.6076114,185.67 35.8742114,185.9304 C36.1408114,186.1908 36.4508114,186.3923 36.8042114,186.5349 C37.1576114,186.6775 37.5389114,186.7488 37.9481114,186.7488 Z M42.9448937,175.0308 L42.9448937,173.58 L41.9590937,173.58 L41.9590937,175.0308 L42.9448937,175.0308 Z M42.9448937,186.6 L42.9448937,177.3 L41.9590937,177.3 L41.9590937,186.6 L42.9448937,186.6 Z M48.778676,175.626 L50.750276,172.8918 L49.615676,172.8918 L47.811476,175.626 L48.778676,175.626 Z M48.388076,186.7116 C48.623676,186.7116 48.902676,186.6806 49.225076,186.6186 C49.547476,186.5566 49.857476,186.4295 50.155076,186.2373 C50.452676,186.0451 50.706876,185.7754 50.917676,185.4282 C51.128476,185.081 51.233876,184.6222 51.233876,184.0518 L51.233876,184.0518 L51.233876,179.7552 C51.233876,179.1848 51.128476,178.726 50.917676,178.3788 C50.706876,178.0316 50.452676,177.765 50.155076,177.579 C49.857476,177.393 49.547476,177.269 49.225076,177.207 C48.902676,177.145 48.623676,177.114 48.388076,177.114 C48.152476,177.114 47.873476,177.145 47.551076,177.207 C47.228676,177.269 46.918676,177.393 46.621076,177.579 C46.323476,177.765 46.069276,178.0316 45.858476,178.3788 C45.647676,178.726 45.542276,179.1848 45.542276,179.7552 L45.542276,179.7552 L45.542276,184.0518 C45.542276,184.6222 45.647676,185.081 45.858476,185.4282 C46.069276,185.7754 46.323476,186.0451 46.621076,186.2373 C46.918676,186.4295 47.228676,186.5566 47.551076,186.6186 C47.873476,186.6806 48.152476,186.7116 48.388076,186.7116 Z M48.388076,185.8002 C48.226876,185.8002 48.031576,185.7785 47.802176,185.7351 C47.572776,185.6917 47.352676,185.6018 47.141876,185.4654 C46.931076,185.329 46.751276,185.1399 46.602476,184.8981 C46.453676,184.6563 46.379276,184.3308 46.379276,183.9216 L46.379276,183.9216 L46.379276,179.8854 C46.379276,179.4762 46.453676,179.1507 46.602476,178.9089 C46.751276,178.6671 46.931076,178.4811 47.141876,178.3509 C47.352676,178.2207 47.572776,178.1339 47.802176,178.0905 C48.031576,178.0471 48.226876,178.0254 48.388076,178.0254 C48.549276,178.0254 48.744576,178.0471 48.973976,178.0905 C49.203376,178.1339 49.420376,178.2207 49.624976,178.3509 C49.829576,178.4811 50.006276,178.6671 50.155076,178.9089 C50.303876,179.1507 50.378276,179.4762 50.378276,179.8854 L50.378276,179.8854 L50.378276,183.9216 C50.378276,184.3308 50.303876,184.6563 50.155076,184.8981 C50.006276,185.1399 49.829576,185.329 49.624976,185.4654 C49.420376,185.6018 49.203376,185.6917 48.973976,185.7351 C48.744576,185.7785 48.549276,185.8002 48.388076,185.8002 Z M54.7984582,186.6 L54.7984582,178.7136 C55.2572582,178.416 55.6695582,178.23 56.0353582,178.1556 C56.4011582,178.0812 56.7018582,178.044 56.9374582,178.044 C57.3590582,178.044 57.7372582,178.2114 58.0720582,178.5462 C58.4068582,178.881 58.5742582,179.3646 58.5742582,179.997 L58.5742582,179.997 L58.5742582,186.6 L59.5600582,186.6 L59.5600582,180.5736 C59.5600582,180.2388 59.5476582,179.9133 59.5228582,179.5971 C59.4980582,179.2809 59.4112582,178.9678 59.2624582,178.6578 C59.0144582,178.0998 58.6486582,177.7061 58.1650582,177.4767 C57.6814582,177.2473 57.1606582,177.1326 56.6026582,177.1326 C55.9950582,177.1326 55.3502582,177.3248 54.6682582,177.7092 L54.6682582,177.7092 L54.1102582,177.1512 L53.4406582,177.8208 L53.8498582,178.2114 L53.8498582,186.6 L54.7984582,186.6 Z M70.0186228,186.786 C70.1922228,186.786 70.4030228,186.7612 70.6510228,186.7116 C70.8990228,186.662 71.1284228,186.6 71.3392228,186.5256 L71.3392228,186.5256 L72.8458228,185.9862 L72.4366228,184.926 C72.0026228,185.0996 71.6523228,185.2391 71.3857228,185.3445 C71.1191228,185.4499 70.9021228,185.5336 70.7347228,185.5956 C70.5673228,185.6576 70.4309228,185.6979 70.3255228,185.7165 C70.2201228,185.7351 70.1178228,185.7444 70.0186228,185.7444 C69.6962228,185.732 69.3862228,185.6607 69.0886228,185.5305 C68.7910228,185.4003 68.5306228,185.2236 68.3074228,185.0004 C68.0842228,184.7772 67.9044228,184.5044 67.7680228,184.182 C67.6316228,183.8596 67.5634228,183.5 67.5634228,183.1032 L67.5634228,183.1032 L67.6006228,177.1884 C67.6006228,176.8288 67.6657228,176.4816 67.7959228,176.1468 C67.9261228,175.812 68.1059228,175.5144 68.3353228,175.254 C68.5647228,174.9936 68.8282228,174.7859 69.1258228,174.6309 C69.4234228,174.4759 69.7396228,174.3984 70.0744228,174.3984 C70.1984228,174.3984 70.3286228,174.417 70.4650228,174.4542 C70.6014228,174.4914 70.7316228,174.5348 70.8556228,174.5844 L70.8556228,174.5844 L72.4738228,175.2168 L72.8086228,174.2496 L71.3578228,173.673 C71.1594228,173.611 70.9362228,173.549 70.6882228,173.487 C70.4402228,173.425 70.2294228,173.394 70.0558228,173.394 C69.5722228,173.394 69.2064228,173.4529 68.9584228,173.5707 C68.7104228,173.6885 68.5244228,173.7784 68.4004228,173.8404 C68.2516228,173.9272 68.1090228,174.0295 67.9726228,174.1473 C67.8362228,174.2651 67.6564228,174.448 67.4332228,174.696 C67.2100228,174.9316 67.0085228,175.2757 66.8287228,175.7283 C66.6489228,176.1809 66.5590228,176.6676 66.5590228,177.1884 L66.5590228,177.1884 L66.5590228,183.1962 C66.5590228,183.7542 66.6520228,184.2533 66.8380228,184.6935 C67.0240228,185.1337 67.2751228,185.5088 67.5913228,185.8188 C67.9075228,186.1288 68.2733228,186.3675 68.6887228,186.5349 C69.1041228,186.7023 69.5474228,186.786 70.0186228,186.786 Z M75.9826051,175.0308 L75.9826051,173.58 L74.9968051,173.58 L74.9968051,175.0308 L75.9826051,175.0308 Z M75.9826051,186.6 L75.9826051,177.3 L74.9968051,177.3 L74.9968051,186.6 L75.9826051,186.6 Z M79.6959874,186.6 L79.6959874,178.7136 C80.1547874,178.416 80.5670874,178.23 80.9328874,178.1556 C81.2986874,178.0812 81.5993874,178.044 81.8349874,178.044 C82.2565874,178.044 82.6347874,178.2114 82.9695874,178.5462 C83.3043874,178.881 83.4717874,179.3646 83.4717874,179.997 L83.4717874,179.997 L83.4717874,186.6 L84.4575874,186.6 L84.4575874,180.5736 C84.4575874,180.2388 84.4451874,179.9133 84.4203874,179.5971 C84.3955874,179.2809 84.3087874,178.9678 84.1599874,178.6578 C83.9119874,178.0998 83.5461874,177.7061 83.0625874,177.4767 C82.5789874,177.2473 82.0581874,177.1326 81.5001874,177.1326 C80.8925874,177.1326 80.2477874,177.3248 79.5657874,177.7092 L79.5657874,177.7092 L79.0077874,177.1512 L78.3381874,177.8208 L78.7473874,178.2114 L78.7473874,186.6 L79.6959874,186.6 Z M89.9193696,186.7674 C89.9813696,186.7674 90.1580696,186.7426 90.4494696,186.693 C90.7408696,186.6434 91.0477696,186.5876 91.3701696,186.5256 C91.7421696,186.4636 92.1575696,186.383 92.6163696,186.2838 L92.6163696,186.2838 L92.3931696,185.298 C91.9715696,185.3972 91.5871696,185.484 91.2399696,185.5584 C90.9423696,185.6204 90.6602696,185.6793 90.3936696,185.7351 C90.1270696,185.7909 89.9689696,185.8188 89.9193696,185.8188 C89.4357696,185.8188 89.0048696,185.6731 88.6266696,185.3817 C88.2484696,185.0903 88.0159696,184.6966 87.9291696,184.2006 L87.9291696,184.2006 L87.9291696,183.0846 C88.1399696,183.1094 88.3445696,183.128 88.5429696,183.1404 C88.7413696,183.1528 88.9397696,183.159 89.1381696,183.159 C89.6217696,183.159 90.0774696,183.1125 90.5052696,183.0195 C90.9330696,182.9265 91.3081696,182.7684 91.6305696,182.5452 C91.9529696,182.322 92.2071696,182.0337 92.3931696,181.6803 C92.5791696,181.3269 92.6721696,180.8898 92.6721696,180.369 L92.6721696,180.369 L92.6721696,179.7552 C92.6721696,179.3832 92.6070696,179.036 92.4768696,178.7136 C92.3466696,178.3912 92.1637696,178.1122 91.9281696,177.8766 C91.6925696,177.641 91.4197696,177.455 91.1097696,177.3186 C90.7997696,177.1822 90.4711696,177.114 90.1239696,177.114 L90.1239696,177.114 L89.4915696,177.114 C89.1319696,177.114 88.8002696,177.1822 88.4964696,177.3186 C88.1926696,177.455 87.9260696,177.641 87.6966696,177.8766 C87.4672696,178.1122 87.2874696,178.3912 87.1572696,178.7136 C87.0270696,179.036 86.9619696,179.3832 86.9619696,179.7552 L86.9619696,179.7552 L86.9619696,183.8658 C86.9619696,184.2874 87.0394696,184.6749 87.1944696,185.0283 C87.3494696,185.3817 87.5633696,185.6886 87.8361696,185.949 C88.1089696,186.2094 88.4251696,186.4109 88.7847696,186.5535 C89.1443696,186.6961 89.5225696,186.7674 89.9193696,186.7674 Z M90.1611696,182.1174 L90.1239696,182.1174 L87.9291696,182.0988 L87.9291696,179.6622 C87.9291696,179.4142 87.9787696,179.191 88.0779696,178.9926 C88.1771696,178.7942 88.3073696,178.6268 88.4685696,178.4904 C88.6297696,178.354 88.8188696,178.2486 89.0358696,178.1742 C89.2528696,178.0998 89.4791696,178.0626 89.7147696,178.0626 C89.9751696,178.0626 90.2262696,178.0905 90.4680696,178.1463 C90.7098696,178.2021 90.9206696,178.292 91.1004696,178.416 C91.2802696,178.54 91.4259696,178.7043 91.5375696,178.9089 C91.6491696,179.1135 91.7049696,179.3646 91.7049696,179.6622 L91.7049696,179.6622 L91.7049696,180.4434 C91.7049696,180.6666 91.6646696,180.8774 91.5840696,181.0758 C91.5034696,181.2742 91.3949696,181.4509 91.2585696,181.6059 C91.1221696,181.7609 90.9609696,181.8849 90.7749696,181.9779 C90.5889696,182.0709 90.3843696,182.1174 90.1611696,182.1174 L90.1611696,182.1174 Z M96.0321519,186.6 L96.0321519,178.7136 C96.1437519,178.6268 96.2832519,178.5462 96.4506519,178.4718 C96.6180519,178.3974 96.7947519,178.3292 96.9807519,178.2672 C97.1667519,178.2052 97.3496519,178.1556 97.5294519,178.1184 C97.7092519,178.0812 97.8549519,178.0626 97.9665519,178.0626 C98.1897519,178.0626 98.4129519,178.1029 98.6361519,178.1835 C98.8593519,178.2641 99.0608519,178.3726 99.2406519,178.509 C99.4204519,178.6454 99.5630519,178.8066 99.6684519,178.9926 C99.7738519,179.1786 99.8265519,179.3832 99.8265519,179.6064 L99.8265519,179.6064 L99.8265519,186.6 L100.793752,186.6 L100.793752,180.5922 C100.793752,179.7986 100.967352,179.1817 101.314552,178.7415 C101.661752,178.3013 102.225952,178.0812 103.007152,178.0812 C103.304752,178.0812 103.555852,178.1308 103.760452,178.23 C103.965052,178.3292 104.126252,178.4594 104.244052,178.6206 C104.361852,178.7818 104.448652,178.9678 104.504452,179.1786 C104.560252,179.3894 104.588152,179.6126 104.588152,179.8482 L104.588152,179.8482 L104.588152,186.6 L105.555352,186.6 L105.555352,179.718 C105.555352,179.4204 105.511952,179.1197 105.425152,178.8159 C105.338352,178.5121 105.195752,178.2331 104.997352,177.9789 C104.798952,177.7247 104.541652,177.517 104.225452,177.3558 C103.909252,177.1946 103.527952,177.114 103.081552,177.114 C102.858352,177.114 102.625852,177.1357 102.384052,177.1791 C102.142252,177.2225 101.900452,177.2969 101.658652,177.4023 C101.416852,177.5077 101.184352,177.6534 100.961152,177.8394 C100.737952,178.0254 100.539552,178.2672 100.365952,178.5648 C100.179952,178.0688 99.8513519,177.703 99.3801519,177.4674 C98.9089519,177.2318 98.3943519,177.114 97.8363519,177.114 C97.5263519,177.114 97.2070519,177.1698 96.8784519,177.2814 C96.5498519,177.393 96.2243519,177.5356 95.9019519,177.7092 L95.9019519,177.7092 L95.3439519,177.1326 L94.6743519,177.7836 L95.0835519,178.1928 L95.0835519,186.6 L96.0321519,186.6 Z M110.403334,186.786 C110.651334,186.786 110.989234,186.7426 111.417034,186.6558 C111.844834,186.569 112.257134,186.414 112.653934,186.1908 L112.653934,186.1908 L113.156134,186.693 L113.825734,186.0234 L113.472334,185.6886 L113.453734,180.369 C113.453734,179.9598 113.379334,179.5599 113.230534,179.1693 C113.081734,178.7787 112.877134,178.4315 112.616734,178.1277 C112.356334,177.8239 112.052534,177.579 111.705334,177.393 C111.358134,177.207 110.986134,177.114 110.589334,177.114 C110.465334,177.114 110.260734,177.145 109.975534,177.207 C109.690334,177.269 109.398934,177.3372 109.101334,177.4116 C108.754134,177.4984 108.375934,177.5914 107.966734,177.6906 L107.966734,177.6906 L108.227134,178.5648 C108.599134,178.4656 108.946334,178.3788 109.268734,178.3044 C109.541534,178.2424 109.805034,178.1804 110.059234,178.1184 C110.313434,178.0564 110.490134,178.0254 110.589334,178.0254 C110.862134,178.0254 111.116334,178.0936 111.351934,178.23 C111.587534,178.3664 111.792134,178.5462 111.965734,178.7694 C112.139334,178.9926 112.278834,179.2437 112.384234,179.5227 C112.489634,179.8017 112.542334,180.0838 112.542334,180.369 L112.542334,180.369 L112.542334,181.0014 C112.393534,180.8898 112.213734,180.7999 112.002934,180.7317 C111.792134,180.6635 111.584434,180.6108 111.379834,180.5736 C111.175234,180.5364 110.983034,180.5116 110.803234,180.4992 C110.623434,180.4868 110.490134,180.4806 110.403334,180.4806 C110.056134,180.4806 109.730634,180.5488 109.426834,180.6852 C109.123034,180.8216 108.859534,181.0076 108.636334,181.2432 C108.413134,181.4788 108.239534,181.7547 108.115534,182.0709 C107.991534,182.3871 107.929534,182.725 107.929534,183.0846 L107.929534,183.0846 L107.929534,184.1262 C107.929534,184.4858 107.991534,184.8268 108.115534,185.1492 C108.239534,185.4716 108.413134,185.7537 108.636334,185.9955 C108.859534,186.2373 109.123034,186.4295 109.426834,186.5721 C109.730634,186.7147 110.056134,186.786 110.403334,186.786 Z M110.384734,185.8002 C110.173934,185.8002 109.975534,185.7568 109.789534,185.67 C109.603534,185.5832 109.442334,185.4685 109.305934,185.3259 C109.169534,185.1833 109.061034,185.0159 108.980434,184.8237 C108.899834,184.6315 108.859534,184.4238 108.859534,184.2006 L108.859534,184.2006 L108.859534,183.0288 C108.859534,182.8056 108.899834,182.5979 108.980434,182.4057 C109.061034,182.2135 109.169534,182.043 109.305934,181.8942 C109.442334,181.7454 109.606634,181.6276 109.798834,181.5408 C109.991034,181.454 110.192534,181.4106 110.403334,181.4106 C110.688534,181.4106 110.961334,181.4447 111.221734,181.5129 C111.482134,181.5811 111.708434,181.6555 111.900634,181.7361 C112.092834,181.8167 112.244734,181.8911 112.356334,181.9593 C112.467934,182.0275 112.523734,182.0678 112.523734,182.0802 L112.523734,182.0802 L112.523734,185.1306 C112.250934,185.2546 111.984334,185.3662 111.723934,185.4654 C111.500734,185.5522 111.268234,185.6297 111.026434,185.6979 C110.784634,185.7661 110.570734,185.8002 110.384734,185.8002 Z M119.454916,186.6186 L119.454916,185.6142 L119.045716,185.6142 C118.686116,185.6142 118.379216,185.5181 118.125016,185.3259 C117.870816,185.1337 117.743716,184.7834 117.743716,184.275 L117.743716,184.275 L117.743716,178.2114 L119.454916,178.2114 L119.454916,177.2814 L117.743716,177.2814 L117.743716,173.58 L116.757916,173.58 L116.757916,177.2814 L115.176916,177.2814 L115.176916,178.2114 L116.757916,178.2114 L116.757916,184.182 C116.757916,184.616 116.813716,184.988 116.925316,185.298 C117.036916,185.608 117.191916,185.8591 117.390316,186.0513 C117.588716,186.2435 117.821216,186.3861 118.087816,186.4791 C118.354416,186.5721 118.642716,186.6186 118.952716,186.6186 L118.952716,186.6186 L119.454916,186.6186 Z M122.331299,186.5814 L122.331299,178.881 C122.653699,178.5834 122.976099,178.3819 123.298499,178.2765 C123.620899,178.1711 123.875099,178.1184 124.061099,178.1184 C124.185099,178.1184 124.299799,178.1215 124.405199,178.1277 C124.510599,178.1339 124.622199,178.1556 124.739999,178.1928 C124.857799,178.23 124.984899,178.2827 125.121299,178.3509 C125.257699,178.4191 125.431299,178.5152 125.642099,178.6392 L125.642099,178.6392 L126.162899,177.858 C125.629699,177.5604 125.214299,177.362 124.916699,177.2628 C124.619099,177.1636 124.346299,177.114 124.098299,177.114 C123.862699,177.114 123.580599,177.1543 123.251999,177.2349 C122.923399,177.3155 122.579299,177.517 122.219699,177.8394 L122.219699,177.8394 L121.568699,177.207 L120.917699,177.8766 L121.401299,178.3602 L121.401299,186.5814 L122.331299,186.5814 Z M130.490081,186.7116 C130.725681,186.7116 131.004681,186.6806 131.327081,186.6186 C131.649481,186.5566 131.959481,186.4295 132.257081,186.2373 C132.554681,186.0451 132.808881,185.7754 133.019681,185.4282 C133.230481,185.081 133.335881,184.6222 133.335881,184.0518 L133.335881,184.0518 L133.335881,179.7552 C133.335881,179.1848 133.230481,178.726 133.019681,178.3788 C132.808881,178.0316 132.554681,177.765 132.257081,177.579 C131.959481,177.393 131.649481,177.269 131.327081,177.207 C131.004681,177.145 130.725681,177.114 130.490081,177.114 C130.254481,177.114 129.975481,177.145 129.653081,177.207 C129.330681,177.269 129.020681,177.393 128.723081,177.579 C128.425481,177.765 128.171281,178.0316 127.960481,178.3788 C127.749681,178.726 127.644281,179.1848 127.644281,179.7552 L127.644281,179.7552 L127.644281,184.0518 C127.644281,184.6222 127.749681,185.081 127.960481,185.4282 C128.171281,185.7754 128.425481,186.0451 128.723081,186.2373 C129.020681,186.4295 129.330681,186.5566 129.653081,186.6186 C129.975481,186.6806 130.254481,186.7116 130.490081,186.7116 Z M130.490081,185.8002 C130.328881,185.8002 130.133581,185.7785 129.904181,185.7351 C129.674781,185.6917 129.454681,185.6018 129.243881,185.4654 C129.033081,185.329 128.853281,185.1399 128.704481,184.8981 C128.555681,184.6563 128.481281,184.3308 128.481281,183.9216 L128.481281,183.9216 L128.481281,179.8854 C128.481281,179.4762 128.555681,179.1507 128.704481,178.9089 C128.853281,178.6671 129.033081,178.4811 129.243881,178.3509 C129.454681,178.2207 129.674781,178.1339 129.904181,178.0905 C130.133581,178.0471 130.328881,178.0254 130.490081,178.0254 C130.651281,178.0254 130.846581,178.0471 131.075981,178.0905 C131.305381,178.1339 131.522381,178.2207 131.726981,178.3509 C131.931581,178.4811 132.108281,178.6671 132.257081,178.9089 C132.405881,179.1507 132.480281,179.4762 132.480281,179.8854 L132.480281,179.8854 L132.480281,183.9216 C132.480281,184.3308 132.405881,184.6563 132.257081,184.8981 C132.108281,185.1399 131.931581,185.329 131.726981,185.4654 C131.522381,185.6018 131.305381,185.6917 131.075981,185.7351 C130.846581,185.7785 130.651281,185.8002 130.490081,185.8002 Z M138.425663,191.4174 C138.822463,191.4174 139.197563,191.3647 139.550963,191.2593 C139.904363,191.1539 140.211263,190.9958 140.471663,190.785 C140.732063,190.5742 140.939763,190.3014 141.094763,189.9666 C141.249763,189.6318 141.327263,189.235 141.327263,188.7762 L141.327263,188.7762 L141.327263,178.1742 L141.736463,177.7836 L141.066863,177.114 L140.508863,177.672 C140.050063,177.4612 139.631563,177.3155 139.253363,177.2349 C138.875163,177.1543 138.543463,177.114 138.258263,177.114 C137.911063,177.114 137.588663,177.1822 137.291063,177.3186 C136.993463,177.455 136.733063,177.641 136.509863,177.8766 C136.286663,178.1122 136.109963,178.3912 135.979763,178.7136 C135.849563,179.036 135.784463,179.377 135.784463,179.7366 L135.784463,179.7366 L135.784463,184.1448 C135.784463,184.5044 135.849563,184.8423 135.979763,185.1585 C136.109963,185.4747 136.286663,185.7537 136.509863,185.9955 C136.733063,186.2373 136.993463,186.4264 137.291063,186.5628 C137.588663,186.6992 137.911063,186.7674 138.258263,186.7674 L138.258263,186.7674 L138.462863,186.7674 C138.673663,186.7674 138.940263,186.7457 139.262663,186.7023 C139.585063,186.6589 139.963263,186.5256 140.397263,186.3024 L140.397263,186.3024 L140.397263,188.7948 C140.397263,189.3776 140.201963,189.8116 139.811363,190.0968 C139.420763,190.382 138.958863,190.5246 138.425663,190.5246 C138.289263,190.5246 138.087763,190.4967 137.821163,190.4409 C137.554563,190.3851 137.291063,190.32 137.030663,190.2456 C136.708263,190.1588 136.379663,190.0596 136.044863,189.948 L136.044863,189.948 L135.784463,190.8222 C136.144063,190.9338 136.491263,191.033 136.826063,191.1198 C137.111263,191.1942 137.402663,191.2624 137.700263,191.3244 C137.997863,191.3864 138.239663,191.4174 138.425663,191.4174 Z M138.258263,185.8188 C137.824263,185.8188 137.458463,185.6607 137.160863,185.3445 C136.863263,185.0283 136.714463,184.647 136.714463,184.2006 L136.714463,184.2006 L136.714463,179.6622 C136.714463,179.439 136.754763,179.2313 136.835363,179.0391 C136.915963,178.8469 137.024463,178.6795 137.160863,178.5369 C137.297263,178.3943 137.458463,178.2796 137.644463,178.1928 C137.830463,178.106 138.028863,178.0626 138.239663,178.0626 C138.351263,178.0626 138.518663,178.0781 138.741863,178.1091 C138.965063,178.1401 139.191363,178.1835 139.420763,178.2393 C139.650163,178.2951 139.857863,178.3633 140.043863,178.4439 C140.229863,178.5245 140.341463,178.6206 140.378663,178.7322 L140.378663,178.7322 L140.378663,185.1678 C140.279463,185.267 140.133763,185.3569 139.941563,185.4375 C139.749363,185.5181 139.544763,185.5863 139.327763,185.6421 C139.110763,185.6979 138.906163,185.7413 138.713963,185.7723 C138.521763,185.8033 138.369863,185.8188 138.258263,185.8188 Z M145.077846,186.5814 L145.077846,178.881 C145.400246,178.5834 145.722646,178.3819 146.045046,178.2765 C146.367446,178.1711 146.621646,178.1184 146.807646,178.1184 C146.931646,178.1184 147.046346,178.1215 147.151746,178.1277 C147.257146,178.1339 147.368746,178.1556 147.486546,178.1928 C147.604346,178.23 147.731446,178.2827 147.867846,178.3509 C148.004246,178.4191 148.177846,178.5152 148.388646,178.6392 L148.388646,178.6392 L148.909446,177.858 C148.376246,177.5604 147.960846,177.362 147.663246,177.2628 C147.365646,177.1636 147.092846,177.114 146.844846,177.114 C146.609246,177.114 146.327146,177.1543 145.998546,177.2349 C145.669946,177.3155 145.325846,177.517 144.966246,177.8394 L144.966246,177.8394 L144.315246,177.207 L143.664246,177.8766 L144.147846,178.3602 L144.147846,186.5814 L145.077846,186.5814 Z M153.627228,175.626 L155.598828,172.8918 L154.464228,172.8918 L152.660028,175.626 L153.627228,175.626 Z M152.753028,186.786 C153.001028,186.786 153.338928,186.7426 153.766728,186.6558 C154.194528,186.569 154.606828,186.414 155.003628,186.1908 L155.003628,186.1908 L155.505828,186.693 L156.175428,186.0234 L155.822028,185.6886 L155.803428,180.369 C155.803428,179.9598 155.729028,179.5599 155.580228,179.1693 C155.431428,178.7787 155.226828,178.4315 154.966428,178.1277 C154.706028,177.8239 154.402228,177.579 154.055028,177.393 C153.707828,177.207 153.335828,177.114 152.939028,177.114 C152.815028,177.114 152.610428,177.145 152.325228,177.207 C152.040028,177.269 151.748628,177.3372 151.451028,177.4116 C151.103828,177.4984 150.725628,177.5914 150.316428,177.6906 L150.316428,177.6906 L150.576828,178.5648 C150.948828,178.4656 151.296028,178.3788 151.618428,178.3044 C151.891228,178.2424 152.154728,178.1804 152.408928,178.1184 C152.663128,178.0564 152.839828,178.0254 152.939028,178.0254 C153.211828,178.0254 153.466028,178.0936 153.701628,178.23 C153.937228,178.3664 154.141828,178.5462 154.315428,178.7694 C154.489028,178.9926 154.628528,179.2437 154.733928,179.5227 C154.839328,179.8017 154.892028,180.0838 154.892028,180.369 L154.892028,180.369 L154.892028,181.0014 C154.743228,180.8898 154.563428,180.7999 154.352628,180.7317 C154.141828,180.6635 153.934128,180.6108 153.729528,180.5736 C153.524928,180.5364 153.332728,180.5116 153.152928,180.4992 C152.973128,180.4868 152.839828,180.4806 152.753028,180.4806 C152.405828,180.4806 152.080328,180.5488 151.776528,180.6852 C151.472728,180.8216 151.209228,181.0076 150.986028,181.2432 C150.762828,181.4788 150.589228,181.7547 150.465228,182.0709 C150.341228,182.3871 150.279228,182.725 150.279228,183.0846 L150.279228,183.0846 L150.279228,184.1262 C150.279228,184.4858 150.341228,184.8268 150.465228,185.1492 C150.589228,185.4716 150.762828,185.7537 150.986028,185.9955 C151.209228,186.2373 151.472728,186.4295 151.776528,186.5721 C152.080328,186.7147 152.405828,186.786 152.753028,186.786 Z M152.734428,185.8002 C152.523628,185.8002 152.325228,185.7568 152.139228,185.67 C151.953228,185.5832 151.792028,185.4685 151.655628,185.3259 C151.519228,185.1833 151.410728,185.0159 151.330128,184.8237 C151.249528,184.6315 151.209228,184.4238 151.209228,184.2006 L151.209228,184.2006 L151.209228,183.0288 C151.209228,182.8056 151.249528,182.5979 151.330128,182.4057 C151.410728,182.2135 151.519228,182.043 151.655628,181.8942 C151.792028,181.7454 151.956328,181.6276 152.148528,181.5408 C152.340728,181.454 152.542228,181.4106 152.753028,181.4106 C153.038228,181.4106 153.311028,181.4447 153.571428,181.5129 C153.831828,181.5811 154.058128,181.6555 154.250328,181.7361 C154.442528,181.8167 154.594428,181.8911 154.706028,181.9593 C154.817628,182.0275 154.873428,182.0678 154.873428,182.0802 L154.873428,182.0802 L154.873428,185.1306 C154.600628,185.2546 154.334028,185.3662 154.073628,185.4654 C153.850428,185.5522 153.617928,185.6297 153.376128,185.6979 C153.134328,185.7661 152.920428,185.8002 152.734428,185.8002 Z M160.24221,186.6 L160.24221,178.2114 L162.00921,178.2114 L162.00921,177.3 L160.22361,177.3 L160.22361,175.719 C160.22361,175.223 160.35691,174.882 160.62351,174.696 C160.89011,174.51 161.19701,174.417 161.54421,174.417 L161.54421,174.417 L161.78601,174.417 L161.78601,173.4126 L161.45121,173.4126 C161.14121,173.4126 160.85291,173.4591 160.58631,173.5521 C160.31971,173.6451 160.09031,173.7877 159.89811,173.9799 C159.70591,174.1721 159.55401,174.4232 159.44241,174.7332 C159.33081,175.0432 159.27501,175.4152 159.27501,175.8492 L159.27501,175.8492 L159.27501,177.3 L157.61961,177.3 L157.61961,178.2114 L159.25641,178.2114 L159.25641,186.6 L160.24221,186.6 Z M164.997192,175.0308 L164.997192,173.58 L164.011392,173.58 L164.011392,175.0308 L164.997192,175.0308 Z M164.997192,186.6 L164.997192,177.3 L164.011392,177.3 L164.011392,186.6 L164.997192,186.6 Z M170.514775,186.7488 C170.688375,186.7488 170.889875,186.7302 171.119275,186.693 C171.348675,186.6558 171.562575,186.6124 171.760975,186.5628 C171.984175,186.5132 172.219775,186.445 172.467775,186.3582 L172.467775,186.3582 L172.170175,185.5026 C171.946975,185.5646 171.729975,185.6204 171.519175,185.67 C171.345575,185.7072 171.165775,185.7413 170.979775,185.7723 C170.793775,185.8033 170.638775,185.8188 170.514775,185.8188 C170.241975,185.8188 169.984675,185.7723 169.742875,185.6793 C169.501075,185.5863 169.287175,185.453 169.101175,185.2794 C168.915175,185.1058 168.769475,184.8981 168.664075,184.6563 C168.558675,184.4145 168.505975,184.1448 168.505975,183.8472 L168.505975,183.8472 L168.505975,179.9598 C168.505975,179.3646 168.701275,178.8903 169.091875,178.5369 C169.482475,178.1835 169.950575,178.0068 170.496175,178.0068 C170.669775,178.0068 170.849575,178.0254 171.035575,178.0626 C171.221575,178.0998 171.401375,178.1432 171.574975,178.1928 C171.773375,178.2424 171.965575,178.2982 172.151575,178.3602 L172.151575,178.3602 L172.374775,177.5604 C172.163975,177.4736 171.946975,177.3992 171.723775,177.3372 C171.537775,177.2752 171.336275,177.2194 171.119275,177.1698 C170.902275,177.1202 170.694575,177.0954 170.496175,177.0954 C170.086975,177.0954 169.705675,177.1667 169.352275,177.3093 C168.998875,177.4519 168.691975,177.6472 168.431575,177.8952 C168.171175,178.1432 167.963475,178.4439 167.808475,178.7973 C167.653475,179.1507 167.575975,179.5382 167.575975,179.9598 L167.575975,179.9598 L167.575975,183.8472 C167.575975,184.2688 167.653475,184.6563 167.808475,185.0097 C167.963475,185.3631 168.174275,185.67 168.440875,185.9304 C168.707475,186.1908 169.017475,186.3923 169.370875,186.5349 C169.724275,186.6775 170.105575,186.7488 170.514775,186.7488 Z M176.590357,186.786 C176.838357,186.786 177.176257,186.7426 177.604057,186.6558 C178.031857,186.569 178.444157,186.414 178.840957,186.1908 L178.840957,186.1908 L179.343157,186.693 L180.012757,186.0234 L179.659357,185.6886 L179.640757,180.369 C179.640757,179.9598 179.566357,179.5599 179.417557,179.1693 C179.268757,178.7787 179.064157,178.4315 178.803757,178.1277 C178.543357,177.8239 178.239557,177.579 177.892357,177.393 C177.545157,177.207 177.173157,177.114 176.776357,177.114 C176.652357,177.114 176.447757,177.145 176.162557,177.207 C175.877357,177.269 175.585957,177.3372 175.288357,177.4116 C174.941157,177.4984 174.562957,177.5914 174.153757,177.6906 L174.153757,177.6906 L174.414157,178.5648 C174.786157,178.4656 175.133357,178.3788 175.455757,178.3044 C175.728557,178.2424 175.992057,178.1804 176.246257,178.1184 C176.500457,178.0564 176.677157,178.0254 176.776357,178.0254 C177.049157,178.0254 177.303357,178.0936 177.538957,178.23 C177.774557,178.3664 177.979157,178.5462 178.152757,178.7694 C178.326357,178.9926 178.465857,179.2437 178.571257,179.5227 C178.676657,179.8017 178.729357,180.0838 178.729357,180.369 L178.729357,180.369 L178.729357,181.0014 C178.580557,180.8898 178.400757,180.7999 178.189957,180.7317 C177.979157,180.6635 177.771457,180.6108 177.566857,180.5736 C177.362257,180.5364 177.170057,180.5116 176.990257,180.4992 C176.810457,180.4868 176.677157,180.4806 176.590357,180.4806 C176.243157,180.4806 175.917657,180.5488 175.613857,180.6852 C175.310057,180.8216 175.046557,181.0076 174.823357,181.2432 C174.600157,181.4788 174.426557,181.7547 174.302557,182.0709 C174.178557,182.3871 174.116557,182.725 174.116557,183.0846 L174.116557,183.0846 L174.116557,184.1262 C174.116557,184.4858 174.178557,184.8268 174.302557,185.1492 C174.426557,185.4716 174.600157,185.7537 174.823357,185.9955 C175.046557,186.2373 175.310057,186.4295 175.613857,186.5721 C175.917657,186.7147 176.243157,186.786 176.590357,186.786 Z M176.571757,185.8002 C176.360957,185.8002 176.162557,185.7568 175.976557,185.67 C175.790557,185.5832 175.629357,185.4685 175.492957,185.3259 C175.356557,185.1833 175.248057,185.0159 175.167457,184.8237 C175.086857,184.6315 175.046557,184.4238 175.046557,184.2006 L175.046557,184.2006 L175.046557,183.0288 C175.046557,182.8056 175.086857,182.5979 175.167457,182.4057 C175.248057,182.2135 175.356557,182.043 175.492957,181.8942 C175.629357,181.7454 175.793657,181.6276 175.985857,181.5408 C176.178057,181.454 176.379557,181.4106 176.590357,181.4106 C176.875557,181.4106 177.148357,181.4447 177.408757,181.5129 C177.669157,181.5811 177.895457,181.6555 178.087657,181.7361 C178.279857,181.8167 178.431757,181.8911 178.543357,181.9593 C178.654957,182.0275 178.710757,182.0678 178.710757,182.0802 L178.710757,182.0802 L178.710757,185.1306 C178.437957,185.2546 178.171357,185.3662 177.910957,185.4654 C177.687757,185.5522 177.455257,185.6297 177.213457,185.6979 C176.971657,185.7661 176.757757,185.8002 176.571757,185.8002 Z M188.574122,191.25 L189.336722,186.6 L189.448322,186.6 L191.940722,177.3 L190.992122,177.3 C190.607722,178.664 190.288422,179.8203 190.034222,180.7689 C189.780022,181.7175 189.572322,182.4956 189.411122,183.1032 C189.225122,183.81 189.076322,184.3928 188.964722,184.8516 L188.964722,184.8516 L188.741522,184.8516 C188.605122,184.3928 188.437722,183.81 188.239322,183.1032 C188.065722,182.4956 187.851822,181.7175 187.597622,180.7689 C187.343422,179.8203 187.055122,178.664 186.732722,177.3 L186.732722,177.3 L185.784122,177.3 L188.257922,186.6 L188.388122,186.6 L187.625522,191.25 L188.574122,191.25 Z M200.074286,186.6 L200.074286,178.2114 L201.841286,178.2114 L201.841286,177.3 L200.055686,177.3 L200.055686,175.719 C200.055686,175.223 200.188986,174.882 200.455586,174.696 C200.722186,174.51 201.029086,174.417 201.376286,174.417 L201.376286,174.417 L201.618086,174.417 L201.618086,173.4126 L201.283286,173.4126 C200.973286,173.4126 200.684986,173.4591 200.418386,173.5521 C200.151786,173.6451 199.922386,173.7877 199.730186,173.9799 C199.537986,174.1721 199.386086,174.4232 199.274486,174.7332 C199.162886,175.0432 199.107086,175.4152 199.107086,175.8492 L199.107086,175.8492 L199.107086,177.3 L197.451686,177.3 L197.451686,178.2114 L199.088486,178.2114 L199.088486,186.6 L200.074286,186.6 Z M206.484668,186.7116 C206.720268,186.7116 206.999268,186.6806 207.321668,186.6186 C207.644068,186.5566 207.954068,186.4295 208.251668,186.2373 C208.549268,186.0451 208.803468,185.7754 209.014268,185.4282 C209.225068,185.081 209.330468,184.6222 209.330468,184.0518 L209.330468,184.0518 L209.330468,179.7552 C209.330468,179.1848 209.225068,178.726 209.014268,178.3788 C208.803468,178.0316 208.549268,177.765 208.251668,177.579 C207.954068,177.393 207.644068,177.269 207.321668,177.207 C206.999268,177.145 206.720268,177.114 206.484668,177.114 C206.249068,177.114 205.970068,177.145 205.647668,177.207 C205.325268,177.269 205.015268,177.393 204.717668,177.579 C204.420068,177.765 204.165868,178.0316 203.955068,178.3788 C203.744268,178.726 203.638868,179.1848 203.638868,179.7552 L203.638868,179.7552 L203.638868,184.0518 C203.638868,184.6222 203.744268,185.081 203.955068,185.4282 C204.165868,185.7754 204.420068,186.0451 204.717668,186.2373 C205.015268,186.4295 205.325268,186.5566 205.647668,186.6186 C205.970068,186.6806 206.249068,186.7116 206.484668,186.7116 Z M206.484668,185.8002 C206.323468,185.8002 206.128168,185.7785 205.898768,185.7351 C205.669368,185.6917 205.449268,185.6018 205.238468,185.4654 C205.027668,185.329 204.847868,185.1399 204.699068,184.8981 C204.550268,184.6563 204.475868,184.3308 204.475868,183.9216 L204.475868,183.9216 L204.475868,179.8854 C204.475868,179.4762 204.550268,179.1507 204.699068,178.9089 C204.847868,178.6671 205.027668,178.4811 205.238468,178.3509 C205.449268,178.2207 205.669368,178.1339 205.898768,178.0905 C206.128168,178.0471 206.323468,178.0254 206.484668,178.0254 C206.645868,178.0254 206.841168,178.0471 207.070568,178.0905 C207.299968,178.1339 207.516968,178.2207 207.721568,178.3509 C207.926168,178.4811 208.102868,178.6671 208.251668,178.9089 C208.400468,179.1507 208.474868,179.4762 208.474868,179.8854 L208.474868,179.8854 L208.474868,183.9216 C208.474868,184.3308 208.400468,184.6563 208.251668,184.8981 C208.102868,185.1399 207.926168,185.329 207.721568,185.4654 C207.516968,185.6018 207.299968,185.6917 207.070568,185.7351 C206.841168,185.7785 206.645868,185.8002 206.484668,185.8002 Z M215.368851,186.6186 L215.368851,185.6142 L214.959651,185.6142 C214.600051,185.6142 214.293151,185.5181 214.038951,185.3259 C213.784751,185.1337 213.657651,184.7834 213.657651,184.275 L213.657651,184.275 L213.657651,178.2114 L215.368851,178.2114 L215.368851,177.2814 L213.657651,177.2814 L213.657651,173.58 L212.671851,173.58 L212.671851,177.2814 L211.090851,177.2814 L211.090851,178.2114 L212.671851,178.2114 L212.671851,184.182 C212.671851,184.616 212.727651,184.988 212.839251,185.298 C212.950851,185.608 213.105851,185.8591 213.304251,186.0513 C213.502651,186.2435 213.735151,186.3861 214.001751,186.4791 C214.268351,186.5721 214.556651,186.6186 214.866651,186.6186 L214.866651,186.6186 L215.368851,186.6186 Z M219.956433,186.7116 C220.192033,186.7116 220.471033,186.6806 220.793433,186.6186 C221.115833,186.5566 221.425833,186.4295 221.723433,186.2373 C222.021033,186.0451 222.275233,185.7754 222.486033,185.4282 C222.696833,185.081 222.802233,184.6222 222.802233,184.0518 L222.802233,184.0518 L222.802233,179.7552 C222.802233,179.1848 222.696833,178.726 222.486033,178.3788 C222.275233,178.0316 222.021033,177.765 221.723433,177.579 C221.425833,177.393 221.115833,177.269 220.793433,177.207 C220.471033,177.145 220.192033,177.114 219.956433,177.114 C219.720833,177.114 219.441833,177.145 219.119433,177.207 C218.797033,177.269 218.487033,177.393 218.189433,177.579 C217.891833,177.765 217.637633,178.0316 217.426833,178.3788 C217.216033,178.726 217.110633,179.1848 217.110633,179.7552 L217.110633,179.7552 L217.110633,184.0518 C217.110633,184.6222 217.216033,185.081 217.426833,185.4282 C217.637633,185.7754 217.891833,186.0451 218.189433,186.2373 C218.487033,186.4295 218.797033,186.5566 219.119433,186.6186 C219.441833,186.6806 219.720833,186.7116 219.956433,186.7116 Z M219.956433,185.8002 C219.795233,185.8002 219.599933,185.7785 219.370533,185.7351 C219.141133,185.6917 218.921033,185.6018 218.710233,185.4654 C218.499433,185.329 218.319633,185.1399 218.170833,184.8981 C218.022033,184.6563 217.947633,184.3308 217.947633,183.9216 L217.947633,183.9216 L217.947633,179.8854 C217.947633,179.4762 218.022033,179.1507 218.170833,178.9089 C218.319633,178.6671 218.499433,178.4811 218.710233,178.3509 C218.921033,178.2207 219.141133,178.1339 219.370533,178.0905 C219.599933,178.0471 219.795233,178.0254 219.956433,178.0254 C220.117633,178.0254 220.312933,178.0471 220.542333,178.0905 C220.771733,178.1339 220.988733,178.2207 221.193333,178.3509 C221.397933,178.4811 221.574633,178.6671 221.723433,178.9089 C221.872233,179.1507 221.946633,179.4762 221.946633,179.8854 L221.946633,179.8854 L221.946633,183.9216 C221.946633,184.3308 221.872233,184.6563 221.723433,184.8981 C221.574633,185.1399 221.397933,185.329 221.193333,185.4654 C220.988733,185.6018 220.771733,185.6917 220.542333,185.7351 C220.312933,185.7785 220.117633,185.8002 219.956433,185.8002 Z M227.892015,191.4174 C228.288815,191.4174 228.663915,191.3647 229.017315,191.2593 C229.370715,191.1539 229.677615,190.9958 229.938015,190.785 C230.198415,190.5742 230.406115,190.3014 230.561115,189.9666 C230.716115,189.6318 230.793615,189.235 230.793615,188.7762 L230.793615,188.7762 L230.793615,178.1742 L231.202815,177.7836 L230.533215,177.114 L229.975215,177.672 C229.516415,177.4612 229.097915,177.3155 228.719715,177.2349 C228.341515,177.1543 228.009815,177.114 227.724615,177.114 C227.377415,177.114 227.055015,177.1822 226.757415,177.3186 C226.459815,177.455 226.199415,177.641 225.976215,177.8766 C225.753015,178.1122 225.576315,178.3912 225.446115,178.7136 C225.315915,179.036 225.250815,179.377 225.250815,179.7366 L225.250815,179.7366 L225.250815,184.1448 C225.250815,184.5044 225.315915,184.8423 225.446115,185.1585 C225.576315,185.4747 225.753015,185.7537 225.976215,185.9955 C226.199415,186.2373 226.459815,186.4264 226.757415,186.5628 C227.055015,186.6992 227.377415,186.7674 227.724615,186.7674 L227.724615,186.7674 L227.929215,186.7674 C228.140015,186.7674 228.406615,186.7457 228.729015,186.7023 C229.051415,186.6589 229.429615,186.5256 229.863615,186.3024 L229.863615,186.3024 L229.863615,188.7948 C229.863615,189.3776 229.668315,189.8116 229.277715,190.0968 C228.887115,190.382 228.425215,190.5246 227.892015,190.5246 C227.755615,190.5246 227.554115,190.4967 227.287515,190.4409 C227.020915,190.3851 226.757415,190.32 226.497015,190.2456 C226.174615,190.1588 225.846015,190.0596 225.511215,189.948 L225.511215,189.948 L225.250815,190.8222 C225.610415,190.9338 225.957615,191.033 226.292415,191.1198 C226.577615,191.1942 226.869015,191.2624 227.166615,191.3244 C227.464215,191.3864 227.706015,191.4174 227.892015,191.4174 Z M227.724615,185.8188 C227.290615,185.8188 226.924815,185.6607 226.627215,185.3445 C226.329615,185.0283 226.180815,184.647 226.180815,184.2006 L226.180815,184.2006 L226.180815,179.6622 C226.180815,179.439 226.221115,179.2313 226.301715,179.0391 C226.382315,178.8469 226.490815,178.6795 226.627215,178.5369 C226.763615,178.3943 226.924815,178.2796 227.110815,178.1928 C227.296815,178.106 227.495215,178.0626 227.706015,178.0626 C227.817615,178.0626 227.985015,178.0781 228.208215,178.1091 C228.431415,178.1401 228.657715,178.1835 228.887115,178.2393 C229.116515,178.2951 229.324215,178.3633 229.510215,178.4439 C229.696215,178.5245 229.807815,178.6206 229.845015,178.7322 L229.845015,178.7322 L229.845015,185.1678 C229.745815,185.267 229.600115,185.3569 229.407915,185.4375 C229.215715,185.5181 229.011115,185.5863 228.794115,185.6421 C228.577115,185.6979 228.372515,185.7413 228.180315,185.7723 C227.988115,185.8033 227.836215,185.8188 227.724615,185.8188 Z M234.544197,186.5814 L234.544197,178.881 C234.866597,178.5834 235.188997,178.3819 235.511397,178.2765 C235.833797,178.1711 236.087997,178.1184 236.273997,178.1184 C236.397997,178.1184 236.512697,178.1215 236.618097,178.1277 C236.723497,178.1339 236.835097,178.1556 236.952897,178.1928 C237.070697,178.23 237.197797,178.2827 237.334197,178.3509 C237.470597,178.4191 237.644197,178.5152 237.854997,178.6392 L237.854997,178.6392 L238.375797,177.858 C237.842597,177.5604 237.427197,177.362 237.129597,177.2628 C236.831997,177.1636 236.559197,177.114 236.311197,177.114 C236.075597,177.114 235.793497,177.1543 235.464897,177.2349 C235.136297,177.3155 234.792197,177.517 234.432597,177.8394 L234.432597,177.8394 L233.781597,177.207 L233.130597,177.8766 L233.614197,178.3602 L233.614197,186.5814 L234.544197,186.5814 Z M242.21938,186.786 C242.46738,186.786 242.80528,186.7426 243.23308,186.6558 C243.66088,186.569 244.07318,186.414 244.46998,186.1908 L244.46998,186.1908 L244.97218,186.693 L245.64178,186.0234 L245.28838,185.6886 L245.26978,180.369 C245.26978,179.9598 245.19538,179.5599 245.04658,179.1693 C244.89778,178.7787 244.69318,178.4315 244.43278,178.1277 C244.17238,177.8239 243.86858,177.579 243.52138,177.393 C243.17418,177.207 242.80218,177.114 242.40538,177.114 C242.28138,177.114 242.07678,177.145 241.79158,177.207 C241.50638,177.269 241.21498,177.3372 240.91738,177.4116 C240.57018,177.4984 240.19198,177.5914 239.78278,177.6906 L239.78278,177.6906 L240.04318,178.5648 C240.41518,178.4656 240.76238,178.3788 241.08478,178.3044 C241.35758,178.2424 241.62108,178.1804 241.87528,178.1184 C242.12948,178.0564 242.30618,178.0254 242.40538,178.0254 C242.67818,178.0254 242.93238,178.0936 243.16798,178.23 C243.40358,178.3664 243.60818,178.5462 243.78178,178.7694 C243.95538,178.9926 244.09488,179.2437 244.20028,179.5227 C244.30568,179.8017 244.35838,180.0838 244.35838,180.369 L244.35838,180.369 L244.35838,181.0014 C244.20958,180.8898 244.02978,180.7999 243.81898,180.7317 C243.60818,180.6635 243.40048,180.6108 243.19588,180.5736 C242.99128,180.5364 242.79908,180.5116 242.61928,180.4992 C242.43948,180.4868 242.30618,180.4806 242.21938,180.4806 C241.87218,180.4806 241.54668,180.5488 241.24288,180.6852 C240.93908,180.8216 240.67558,181.0076 240.45238,181.2432 C240.22918,181.4788 240.05558,181.7547 239.93158,182.0709 C239.80758,182.3871 239.74558,182.725 239.74558,183.0846 L239.74558,183.0846 L239.74558,184.1262 C239.74558,184.4858 239.80758,184.8268 239.93158,185.1492 C240.05558,185.4716 240.22918,185.7537 240.45238,185.9955 C240.67558,186.2373 240.93908,186.4295 241.24288,186.5721 C241.54668,186.7147 241.87218,186.786 242.21938,186.786 Z M242.20078,185.8002 C241.98998,185.8002 241.79158,185.7568 241.60558,185.67 C241.41958,185.5832 241.25838,185.4685 241.12198,185.3259 C240.98558,185.1833 240.87708,185.0159 240.79648,184.8237 C240.71588,184.6315 240.67558,184.4238 240.67558,184.2006 L240.67558,184.2006 L240.67558,183.0288 C240.67558,182.8056 240.71588,182.5979 240.79648,182.4057 C240.87708,182.2135 240.98558,182.043 241.12198,181.8942 C241.25838,181.7454 241.42268,181.6276 241.61488,181.5408 C241.80708,181.454 242.00858,181.4106 242.21938,181.4106 C242.50458,181.4106 242.77738,181.4447 243.03778,181.5129 C243.29818,181.5811 243.52448,181.6555 243.71668,181.7361 C243.90888,181.8167 244.06078,181.8911 244.17238,181.9593 C244.28398,182.0275 244.33978,182.0678 244.33978,182.0802 L244.33978,182.0802 L244.33978,185.1306 C244.06698,185.2546 243.80038,185.3662 243.53998,185.4654 C243.31678,185.5522 243.08428,185.6297 242.84248,185.6979 C242.60068,185.7661 242.38678,185.8002 242.20078,185.8002 Z M249.708562,186.6 L249.708562,178.2114 L251.475562,178.2114 L251.475562,177.3 L249.689962,177.3 L249.689962,175.719 C249.689962,175.223 249.823262,174.882 250.089862,174.696 C250.356462,174.51 250.663362,174.417 251.010562,174.417 L251.010562,174.417 L251.252362,174.417 L251.252362,173.4126 L250.917562,173.4126 C250.607562,173.4126 250.319262,173.4591 250.052662,173.5521 C249.786062,173.6451 249.556662,173.7877 249.364462,173.9799 C249.172262,174.1721 249.020362,174.4232 248.908762,174.7332 C248.797162,175.0432 248.741362,175.4152 248.741362,175.8492 L248.741362,175.8492 L248.741362,177.3 L247.085962,177.3 L247.085962,178.2114 L248.722762,178.2114 L248.722762,186.6 L249.708562,186.6 Z M254.463544,175.626 L256.435144,172.8918 L255.300544,172.8918 L253.496344,175.626 L254.463544,175.626 Z M254.463544,186.6 L254.463544,177.3 L253.477744,177.3 L253.477744,186.6 L254.463544,186.6 Z M259.367327,186.786 C259.615327,186.786 259.953227,186.7426 260.381027,186.6558 C260.808827,186.569 261.221127,186.414 261.617927,186.1908 L261.617927,186.1908 L262.120127,186.693 L262.789727,186.0234 L262.436327,185.6886 L262.417727,180.369 C262.417727,179.9598 262.343327,179.5599 262.194527,179.1693 C262.045727,178.7787 261.841127,178.4315 261.580727,178.1277 C261.320327,177.8239 261.016527,177.579 260.669327,177.393 C260.322127,177.207 259.950127,177.114 259.553327,177.114 C259.429327,177.114 259.224727,177.145 258.939527,177.207 C258.654327,177.269 258.362927,177.3372 258.065327,177.4116 C257.718127,177.4984 257.339927,177.5914 256.930727,177.6906 L256.930727,177.6906 L257.191127,178.5648 C257.563127,178.4656 257.910327,178.3788 258.232727,178.3044 C258.505527,178.2424 258.769027,178.1804 259.023227,178.1184 C259.277427,178.0564 259.454127,178.0254 259.553327,178.0254 C259.826127,178.0254 260.080327,178.0936 260.315927,178.23 C260.551527,178.3664 260.756127,178.5462 260.929727,178.7694 C261.103327,178.9926 261.242827,179.2437 261.348227,179.5227 C261.453627,179.8017 261.506327,180.0838 261.506327,180.369 L261.506327,180.369 L261.506327,181.0014 C261.357527,180.8898 261.177727,180.7999 260.966927,180.7317 C260.756127,180.6635 260.548427,180.6108 260.343827,180.5736 C260.139227,180.5364 259.947027,180.5116 259.767227,180.4992 C259.587427,180.4868 259.454127,180.4806 259.367327,180.4806 C259.020127,180.4806 258.694627,180.5488 258.390827,180.6852 C258.087027,180.8216 257.823527,181.0076 257.600327,181.2432 C257.377127,181.4788 257.203527,181.7547 257.079527,182.0709 C256.955527,182.3871 256.893527,182.725 256.893527,183.0846 L256.893527,183.0846 L256.893527,184.1262 C256.893527,184.4858 256.955527,184.8268 257.079527,185.1492 C257.203527,185.4716 257.377127,185.7537 257.600327,185.9955 C257.823527,186.2373 258.087027,186.4295 258.390827,186.5721 C258.694627,186.7147 259.020127,186.786 259.367327,186.786 Z M259.348727,185.8002 C259.137927,185.8002 258.939527,185.7568 258.753527,185.67 C258.567527,185.5832 258.406327,185.4685 258.269927,185.3259 C258.133527,185.1833 258.025027,185.0159 257.944427,184.8237 C257.863827,184.6315 257.823527,184.4238 257.823527,184.2006 L257.823527,184.2006 L257.823527,183.0288 C257.823527,182.8056 257.863827,182.5979 257.944427,182.4057 C258.025027,182.2135 258.133527,182.043 258.269927,181.8942 C258.406327,181.7454 258.570627,181.6276 258.762827,181.5408 C258.955027,181.454 259.156527,181.4106 259.367327,181.4106 C259.652527,181.4106 259.925327,181.4447 260.185727,181.5129 C260.446127,181.5811 260.672427,181.6555 260.864627,181.7361 C261.056827,181.8167 261.208727,181.8911 261.320327,181.9593 C261.431927,182.0275 261.487727,182.0678 261.487727,182.0802 L261.487727,182.0802 L261.487727,185.1306 C261.214927,185.2546 260.948327,185.3662 260.687927,185.4654 C260.464727,185.5522 260.232227,185.6297 259.990427,185.6979 C259.748627,185.7661 259.534727,185.8002 259.348727,185.8002 Z" id="DirecciónCinematrográficayfotografía" fill="#FFFFFF" fill-rule="nonzero"></path>
            </g>
        </g>
    </g>
</svg>