<svg width="29" height="28" viewBox="0 0 29 28" 
  xmlns="http://www.w3.org/2000/svg">
  <g fill="none" fill-rule="evenodd">
    <path fill="#2C7CFF" d="M-540-57H826v197H-540z"/>
    <path d="M26.909 0C28.064 0 29 .904 29 2.02v23.96c0 1.116-.936 2.02-2.091 2.02H2.09C.936 28 0 27.096 0 25.98V2.02C0 .903.936 0 2.091 0zm-5.673 6h-.214c-2.541.009-4.26 1.36-5.15 4.057.499-.179.963-.27 1.399-.27.862 0 1.294.382 1.294 1.154 0 .1-.009.204-.021.322-.058.567-.481 1.438-1.273 2.615-.807 1.145-1.403 1.72-1.795 1.72-.502-.008-.974-.893-1.41-2.649-.08-.266-.178-.728-.294-1.39a336.41 336.41 0 01-.454-2.583c-.32-1.86-1.148-2.789-2.465-2.789-.09 0-.175.005-.263.014-.64.073-1.58.6-2.812 1.568L6.4 8.893 5 10.03l.904 1.046c.845-.54 1.34-.811 1.482-.811.65 0 1.259.928 1.828 2.788l.77 2.567.783 2.57c.745 1.874 1.674 2.81 2.792 2.81 1.798-.008 3.983-1.541 6.56-4.6 2.501-2.924 3.792-5.228 3.872-6.924.005-.139.009-.278.009-.409-.009-2-.926-3.019-2.764-3.067z" fill="#FFF" fill-rule="nonzero"/>
  </g>
</svg>