<svg width="34" height="20" viewBox="0 0 34 20" xmlns="http://www.w3.org/2000/svg">
  <path d="M33.614 9.066L24.894.384A1.315 1.315 0 0023.96 0c-.354 0-.686.136-.935.384l-.791.788a1.329 1.329 0 000 1.872L27.32 8.12H1.304C.576 8.12 0 8.688 0 9.414v1.114c0 .726.576 1.351 1.304 1.351h26.074l-5.144 5.105a1.294 1.294 0 000 1.848l.792.785c.249.248.58.383.934.383.354 0 .686-.137.935-.385l8.72-8.682c.249-.248.386-.58.385-.933 0-.354-.136-.686-.386-.934z" fill="#2C7CFF" fill-rule="nonzero" opacity=".75"/>
</svg>