<svg width="34" height="20" viewBox="0 0 34 20" xmlns="http://www.w3.org/2000/svg">
  <path d="M.386 9.066L9.106.384C9.355.136 9.686 0 10.04 0c.354 0 .686.136.935.384l.791.788a1.329 1.329 0 010 1.872L6.68 8.12h26.017c.728 0 1.304.568 1.304 1.294v1.114c0 .726-.576 1.351-1.304 1.351H6.622l5.144 5.105a1.294 1.294 0 010 1.848l-.792.785c-.249.248-.58.383-.934.383-.354 0-.686-.137-.935-.385l-8.72-8.682A1.305 1.305 0 010 10c0-.354.136-.686.386-.934z" fill="#2C7CFF" fill-rule="nonzero" opacity=".75"/>
</svg>